<?xml version="1.0" encoding="UTF-8"?>
<svg version="1.1" xmlns="http://www.w3.org/2000/svg" width="1408" height="768">
<path d="M0 0 C464.64 0 929.28 0 1408 0 C1408 253.44 1408 506.88 1408 768 C943.36 768 478.72 768 0 768 C0 514.56 0 261.12 0 0 Z " fill="#F8FBFB" transform="translate(0,0)"/>
<path d="M0 0 C0.15819214 1.75582397 0.15819214 1.75582397 0.31958008 3.54711914 C0.72492753 8.04288037 1.13143899 12.53853569 1.53842163 17.03414917 C1.72108742 19.05246278 1.90356231 21.07079368 2.08584595 23.08914185 C3.44150409 38.09233391 3.44150409 38.09233391 4.8984375 53.0859375 C4.96636505 53.76194 5.0342926 54.4379425 5.10427856 55.13442993 C5.17025238 55.79051239 5.2362262 56.44659485 5.30419922 57.12255859 C6.60590311 70.07824332 7.57922603 82.98502594 8 96 C1.94965688 94.30916337 -3.36414871 91.3171076 -8.875 88.375 C-9.84953125 87.859375 -10.8240625 87.34375 -11.828125 86.8125 C-14.22093706 85.54571714 -16.61144536 84.27478682 -19 83 C-21.84785446 86.47393927 -23.78497506 90.30754889 -25.76196289 94.31274414 C-26.3091095 95.40900871 -26.3091095 95.40900871 -26.86730957 96.52742004 C-28.07277922 98.9448481 -29.27263521 101.36501953 -30.47265625 103.78515625 C-31.31839089 105.48290642 -32.16454358 107.18044839 -33.01109314 108.87779236 C-35.24479964 113.35851487 -37.47406049 117.84143299 -39.70202637 122.32501221 C-43.2412563 129.44650175 -46.78561665 136.56543131 -50.33294487 143.68288994 C-51.55657041 146.14014854 -52.77735379 148.59880253 -53.99781799 151.05763245 C-58.38175717 159.8720699 -62.87493873 168.6190539 -67.479599 177.3202734 C-70.80593828 183.61030066 -74.03157454 189.94488515 -77.19140625 196.3203125 C-77.70759018 197.35646698 -78.22377411 198.39262146 -78.75559998 199.46017456 C-80.35992626 202.68077959 -81.96155758 205.9027117 -83.5625 209.125 C-85.70735323 213.44124464 -87.85484673 217.75616095 -90.00390625 222.0703125 C-90.73656456 223.54807663 -90.73656456 223.54807663 -91.48402405 225.05569458 C-91.93216965 225.955289 -92.38031525 226.85488342 -92.84204102 227.78173828 C-93.23601578 228.57492462 -93.62999054 229.36811096 -94.03590393 230.18533325 C-95 232 -95 232 -96 233 C-99.10251201 233.08874135 -102.1826812 233.11518455 -105.28515625 233.09765625 C-106.21597519 233.0962413 -107.14679413 233.09482635 -108.1058197 233.09336853 C-111.09141191 233.08775172 -114.07693029 233.0751964 -117.0625 233.0625 C-119.08137913 233.05748716 -121.10025943 233.05292388 -123.11914062 233.04882812 C-128.07945572 233.03777683 -133.03971532 233.02050095 -138 233 C-137.36870287 228.65826496 -135.81293076 225.26063866 -133.84936523 221.35142517 C-133.52253219 220.69660693 -133.19569914 220.04178869 -132.85896206 219.36712748 C-131.76451432 217.17797427 -130.661555 214.99322426 -129.55859375 212.80834961 C-128.77137423 211.23803173 -127.98469534 209.66744272 -127.19851685 208.09660339 C-125.50553659 204.71673473 -123.8088068 201.33878488 -122.10916138 197.96226311 C-119.42258504 192.62489437 -116.74473353 187.28317903 -114.06811523 181.94081116 C-108.86933878 171.56738907 -103.66154407 161.19850801 -98.45292664 150.83002472 C-91.82190642 137.62881453 -85.19536306 124.42536178 -78.57605457 111.21827513 C-75.91329209 105.90615335 -73.24634496 100.59615988 -70.57611084 95.28779018 C-68.91725397 91.98815846 -67.26166514 88.68689501 -65.60692978 85.38519478 C-64.83796562 83.85261588 -64.06761177 82.32073337 -63.29578018 80.78959656 C-62.24370945 78.7020883 -61.1965789 76.61217424 -60.15063477 74.52159119 C-59.56290787 73.35187743 -58.97518097 72.18216368 -58.36964417 70.97700405 C-57.27619882 68.60033476 -56.48597222 66.55328242 -56 64 C-59.04111749 62.39479066 -62.08299233 60.79102164 -65.125 59.1875 C-65.9809375 58.73568359 -66.836875 58.28386719 -67.71875 57.81835938 C-72.12329618 55.49750235 -76.53530477 53.20307093 -81 51 C-81 50.34 -81 49.68 -81 49 C-79.234375 47.73828125 -79.234375 47.73828125 -76.75 46.3125 C-75.84024414 45.78422607 -74.93048828 45.25595215 -73.99316406 44.71166992 C-73.00541992 44.14681885 -72.01767578 43.58196777 -71 43 C-68.95222434 41.81014246 -66.90535296 40.6187273 -64.859375 39.42578125 C-63.85068359 38.83877441 -62.84199219 38.25176758 -61.80273438 37.64697266 C-58.24446735 35.55602585 -54.73803678 33.39305905 -51.25 31.1875 C-44.19939797 26.73801859 -37.10464375 22.36261577 -30 18 C-21.79007223 12.95860879 -13.59016463 7.90375963 -5.45507812 2.7421875 C-1.1068892 0 -1.1068892 0 0 0 Z " fill="#0F5FB4" transform="translate(416,268)"/>
<path d="M0 0 C11.83816344 -3.35810367 23.44075905 -4.26988199 34.77274323 1.38321686 C42.21581281 5.78957725 48.7127838 11.21357531 55 17.125 C55.49378175 17.58573693 55.9875635 18.04647387 56.49630833 18.52117252 C73.11180292 34.24003446 79.26359298 49.55642108 80.17041016 72.29492188 C80.25684106 75.67094824 80.29034145 79.04480989 80.296875 82.421875 C80.29893951 83.1969062 80.30100403 83.97193741 80.3031311 84.77045441 C80.28839243 98.12365105 79.44005434 111.41024477 78.75 124.75 C77.8425 149.5825 76.935 174.415 76 200 C24.19 200 -27.62 200 -81 200 C-81 156.90738699 -81 156.90738699 -69 141 C-68.34 140.67 -67.68 140.34 -67 140 C-67 154.85 -67 169.7 -67 185 C-24.43 185 18.14 185 62 185 C62 141.11 62 97.22 62 52 C49.46 52 36.92 52 24 52 C24 39.46 24 26.92 24 14 C16.08 14 8.16 14 0 14 C0 9.38 0 4.76 0 0 Z " fill="#143863" transform="translate(427,301)"/>
<path d="M0 0 C14.19 0 28.38 0 43 0 C41.7353498 3.79395059 40.66044215 6.92865078 38.91513062 10.4102478 C38.50323486 11.23678864 38.09133911 12.06332947 37.66696167 12.91491699 C36.99529465 14.24746521 36.99529465 14.24746521 36.31005859 15.60693359 C35.83493835 16.55746613 35.35981812 17.50799866 34.87030029 18.48733521 C33.30013166 21.62628078 31.72431058 24.76235243 30.1484375 27.8984375 C29.04909803 30.09338115 27.95011473 32.28850322 26.85147095 34.48379517 C23.95480406 40.26949512 21.05334976 46.05278127 18.15087891 51.83557129 C15.22405097 57.66890755 12.30163657 63.50445366 9.37890625 69.33984375 C4.59446033 78.89105502 -0.19154843 88.44148052 -4.98420143 97.98857689 C-7.08211832 102.16891464 -9.17681947 106.35067588 -11.25506592 110.54083252 C-11.60266653 111.24042398 -11.95026714 111.94001545 -12.30840111 112.66080666 C-13.19928504 114.45536553 -14.08774218 116.25112865 -14.97592163 118.04702759 C-17.89360563 123.74518855 -20.96494941 129.36347748 -24 135 C-38.19 135 -52.38 135 -67 135 C-65.54324921 131.35812303 -64.04023544 127.95684108 -62.2918396 124.46342468 C-61.74217026 123.36271133 -61.19250092 122.26199799 -60.62617493 121.12792969 C-60.01953793 119.91819424 -59.41286245 118.70847808 -58.80615234 117.4987793 C-58.1652995 116.21735585 -57.52462307 114.93584417 -56.8841095 113.6542511 C-55.14847005 110.18268565 -53.41036923 106.71235781 -51.67182112 103.2422483 C-49.85396964 99.61280251 -48.03838815 95.98222157 -46.2225647 92.35176086 C-42.78534433 85.48042647 -39.34608617 78.61011415 -35.90609324 71.74016744 C-31.98918441 63.91753256 -28.07455093 56.09375986 -24.16010737 48.26989114 C-16.10926775 32.1786605 -8.05527459 16.08901101 0 0 Z " fill="#0B5AB0" transform="translate(292,366)"/>
<path d="M0 0 C14.19 0 28.38 0 43 0 C41.47730067 4.56809798 39.91275891 8.42268666 37.77880859 12.68530273 C37.30021393 13.64533958 37.30021393 13.64533958 36.81195068 14.62477112 C35.76133846 16.72968347 34.7050117 18.83166856 33.6484375 20.93359375 C32.90787996 22.41351428 32.16762025 23.89358388 31.42764282 25.37379456 C29.87497142 28.47757512 28.31962972 31.57999739 26.76220703 34.68139648 C24.78826266 38.61243892 22.81947842 42.5460357 20.8525753 46.48060513 C19.32178234 49.5419157 17.78888532 52.60216888 16.25532913 55.66209602 C15.53020852 57.10920226 14.805539 58.55653464 14.08137131 60.00411797 C13.05541808 62.05379626 12.02681389 64.1021247 10.99755859 66.15014648 C10.41734955 67.30675278 9.8371405 68.46335907 9.23934937 69.65501404 C5.89693225 76.14027072 2.43336953 82.56243213 -1 89 C-15.19 89 -29.38 89 -44 89 C-42.47696713 84.43090139 -40.81085761 80.34124339 -38.65625 76.08203125 C-38.3312854 75.43219772 -38.0063208 74.7823642 -37.67150879 74.11283875 C-36.61853126 72.01059158 -35.55950082 69.91146606 -34.5 67.8125 C-33.76418382 66.34772612 -33.02850764 64.88288189 -32.29296875 63.41796875 C-28.2460019 55.37274108 -24.13397904 47.36775819 -19.89111328 39.42382812 C-12.98997048 26.42595245 -6.55768487 13.17094335 0 0 Z " fill="#0E5AB0" transform="translate(217,412)"/>
<path d="M0 0 C4.57875 -0.061875 9.1575 -0.12375 13.875 -0.1875 C16.0094458 -0.22846802 16.0094458 -0.22846802 18.18701172 -0.27026367 C28.43673155 -0.33689473 37.08781092 0.64726593 45.2421875 7.25 C50.66599339 12.64970008 53.14037817 18.46196219 53.3125 26.0625 C53.22255028 33.41384558 52.07061607 39.33328239 47.26953125 45.06640625 C38.05080435 53.88031879 27.51396128 53.39511298 15.4375 53.1875 C10.343125 53.125625 5.24875 53.06375 0 53 C0 35.51 0 18.02 0 0 Z " fill="#0C3463" transform="translate(1077,349)"/>
<path d="M0 0 C8.476875 -0.0928125 8.476875 -0.0928125 17.125 -0.1875 C18.89762207 -0.21481201 20.67024414 -0.24212402 22.49658203 -0.27026367 C23.91698528 -0.27903354 25.33739612 -0.2866763 26.7578125 -0.29296875 C27.48282959 -0.30831665 28.20784668 -0.32366455 28.95483398 -0.33947754 C35.35351873 -0.34274551 39.19426132 1.35128207 43.875 5.625 C46.58626842 9.9311322 46.86050512 13.03836412 46 18 C44.61019502 20.96912882 43.30342972 22.69657028 41 25 C41.969375 25.78375 42.93875 26.5675 43.9375 27.375 C45.83962346 28.91288705 46.89629957 29.79259913 48 32 C48.40678241 36.85792065 48.62085653 41.43152035 46.8125 46 C43.37710789 49.7907775 39.97736766 51.25123784 35 52 C32.27598879 52.0817995 29.57848718 52.11673616 26.85546875 52.09765625 C25.83096619 52.09614563 25.83096619 52.09614563 24.7857666 52.09460449 C22.2529938 52.08940257 19.72024508 52.07544145 17.1875 52.0625 C11.515625 52.041875 5.84375 52.02125 0 52 C0 34.84 0 17.68 0 0 Z " fill="#0A305E" transform="translate(893,350)"/>
<path d="M0 0 C4.74375 -0.103125 9.4875 -0.20625 14.375 -0.3125 C15.8501709 -0.35802002 17.3253418 -0.40354004 18.84521484 -0.45043945 C27.66223242 -0.54271749 35.04685619 0.30770009 41.67358398 6.58544922 C46.11036551 11.70307277 46.34430491 15.36388653 46.28125 21.953125 C45.65724413 28.71318861 41.71339769 32.38040127 37 37 C37.721875 38.07121094 38.44375 39.14242187 39.1875 40.24609375 C40.1251205 41.6431483 41.06261397 43.04028812 42 44.4375 C42.47695312 45.14455078 42.95390625 45.85160156 43.4453125 46.58007812 C43.89648438 47.25361328 44.34765625 47.92714844 44.8125 48.62109375 C45.23144531 49.2442749 45.65039062 49.86745605 46.08203125 50.50952148 C47 52 47 52 47 53 C42.14655618 53.73619653 37.82181235 54.03878272 33 53 C28.60763851 48.78718029 25.91503728 43.74511183 24 38 C20.37 38 16.74 38 13 38 C13 43.28 13 48.56 13 54 C8.71 54 4.42 54 0 54 C0 36.18 0 18.36 0 0 Z " fill="#0D3565" transform="translate(1188,349)"/>
<path d="M0 0 C11 0 11 0 13.34692383 1.76904297 C13.79575928 2.58518066 14.24459473 3.40131836 14.70703125 4.2421875 C15.49303711 5.59570312 15.49303711 5.59570312 16.29492188 6.9765625 C17.04612305 8.41128906 17.04612305 8.41128906 17.8125 9.875 C18.33263672 10.7928125 18.85277344 11.710625 19.38867188 12.65625 C20.42969448 14.4971617 21.45481633 16.34716107 22.46337891 18.20605469 C24.85021009 22.54588564 27.42252908 26.7714535 30 31 C32.84308502 27.5884534 35.20601339 24.1452503 37.41796875 20.296875 C38.03220703 19.2346875 38.64644531 18.1725 39.27929688 17.078125 C40.22385742 15.43070312 40.22385742 15.43070312 41.1875 13.75 C42.45051706 11.55653922 43.71477136 9.36379023 44.98046875 7.171875 C45.53629639 6.2034668 46.09212402 5.23505859 46.66479492 4.23730469 C48 2 48 2 49 1 C52.63 1 56.26 1 60 1 C60 18.16 60 35.32 60 53 C56.37 53 52.74 53 49 53 C48.67 43.43 48.34 33.86 48 24 C43.67847178 31.88256421 43.67847178 31.88256421 39.41577148 39.796875 C38.86477783 40.77140625 38.31378418 41.7459375 37.74609375 42.75 C36.92129517 44.25820313 36.92129517 44.25820313 36.07983398 45.796875 C34 48 34 48 30.45239258 48.56323242 C27 48 27 48 25.24316406 46.42700195 C24.63553223 45.34358521 24.63553223 45.34358521 24.015625 44.23828125 C23.55542969 43.44873047 23.09523438 42.65917969 22.62109375 41.84570312 C22.16863281 41.00974609 21.71617187 40.17378906 21.25 39.3125 C20.54810547 38.08756836 20.54810547 38.08756836 19.83203125 36.83789062 C18.95591271 35.30530366 18.09036708 33.7665862 17.23925781 32.2199707 C15.8789239 29.78310777 14.43587731 27.39312884 13 25 C12.67 34.24 12.34 43.48 12 53 C8.04 53 4.08 53 0 53 C0 35.51 0 18.02 0 0 Z " fill="#072344" transform="translate(750,349)"/>
<path d="M0 0 C4.95 -0.0825 9.9 -0.165 15 -0.25 C17.31837891 -0.30462402 17.31837891 -0.30462402 19.68359375 -0.36035156 C27.08377717 -0.42003046 32.7088149 -0.307339 39 4 C43.14014798 8.08694284 45.15845649 11.30377665 45.3125 17.125 C45.23804998 24.23497687 43.2740269 28.6554346 38.35546875 33.7265625 C37.57816406 34.47679687 36.80085937 35.22703125 36 36 C36.721875 37.07121094 37.44375 38.14242187 38.1875 39.24609375 C39.1251205 40.6431483 40.06261397 42.04028812 41 43.4375 C41.47695313 44.14455078 41.95390625 44.85160156 42.4453125 45.58007812 C42.89648438 46.25361328 43.34765625 46.92714844 43.8125 47.62109375 C44.23144531 48.2442749 44.65039062 48.86745605 45.08203125 49.50952148 C46 51 46 51 46 52 C41.11456381 52.81308113 36.85140048 53.11719948 32 52 C27.84282805 48.65667289 25.29573743 43.72508922 23 39 C23 38.34 23 37.68 23 37 C19.37 37 15.74 37 12 37 C12 41.95 12 46.9 12 52 C8.04 52 4.08 52 0 52 C0 34.84 0 17.68 0 0 Z " fill="#062243" transform="translate(539,350)"/>
<path d="M0 0 C13.53 0 27.06 0 41 0 C41 3.63 41 7.26 41 11 C31.76 11 22.52 11 13 11 C13 14.63 13 18.26 13 22 C20.92 22 28.84 22 37 22 C37 24.97 37 27.94 37 31 C29.08 31 21.16 31 13 31 C13 34.96 13 38.92 13 43 C22.57 43 32.14 43 42 43 C42 46.63 42 50.26 42 54 C28.14 54 14.28 54 0 54 C0 36.18 0 18.36 0 0 Z " fill="#153B69" transform="translate(1138,349)"/>
<path d="M0 0 C13.53 0 27.06 0 41 0 C41 3.63 41 7.26 41 11 C31.76 11 22.52 11 13 11 C13 14.63 13 18.26 13 22 C20.92 22 28.84 22 37 22 C37 24.97 37 27.94 37 31 C29.08 31 21.16 31 13 31 C13 34.96 13 38.92 13 43 C22.24 43 31.48 43 41 43 C41 46.3 41 49.6 41 53 C27.47 53 13.94 53 0 53 C0 35.51 0 18.02 0 0 Z " fill="#0B2747" transform="translate(593,349)"/>
<path d="M0 0 C4.29 0 8.58 0 13 0 C13.01458252 1.06436279 13.02916504 2.12872559 13.04418945 3.2253418 C13.1022978 7.18596469 13.17952945 11.14602648 13.26245117 15.10620117 C13.29564169 16.81802238 13.32369189 18.52995148 13.34643555 20.24194336 C13.38009032 22.70733479 13.43240974 25.17174281 13.48828125 27.63671875 C13.49467117 28.39836838 13.5010611 29.16001801 13.50764465 29.94474792 C13.6312449 34.44293556 14.20720447 37.42393767 17 41 C20.68876027 42.84438013 24.97330313 42.48788734 29 42 C31.57637471 40.11484777 32.59667428 38.80665143 34 36 C34.15676775 33.30344554 34.25836315 30.62870023 34.31640625 27.9296875 C34.33718735 27.13345978 34.35796844 26.33723206 34.37937927 25.51687622 C34.44484149 22.96967315 34.50374415 20.42236575 34.5625 17.875 C34.6056884 16.14972873 34.64930279 14.42446807 34.69335938 12.69921875 C34.80051945 8.46625315 34.90179623 4.23318247 35 0 C39.29 0 43.58 0 48 0 C48.09975053 4.94378949 48.17187902 9.88697822 48.21972656 14.83154297 C48.23969699 16.50938131 48.26688332 18.18715136 48.30175781 19.86474609 C48.72170225 40.60259047 48.72170225 40.60259047 42.32299805 47.91699219 C36.70331856 53.35631176 30.66613054 54.11560109 23.0625 54.375 C16.02213463 54.24807931 11.40108405 53.21806608 6.2578125 48.3515625 C0.75024999 42.31696052 -0.29754915 37.17602151 -0.1953125 29.19921875 C-0.1924826 28.36284378 -0.18965271 27.52646881 -0.18673706 26.66474915 C-0.1755832 24.00551774 -0.15048763 21.34662882 -0.125 18.6875 C-0.11496399 16.87956217 -0.10583923 15.07161904 -0.09765625 13.26367188 C-0.07565959 8.84231688 -0.04116294 4.42121642 0 0 Z " fill="#0E3460" transform="translate(949,349)"/>
<path d="M0 0 C4.29 0 8.58 0 13 0 C13.01458252 1.06436279 13.02916504 2.12872559 13.04418945 3.2253418 C13.1022978 7.18596469 13.17952945 11.14602648 13.26245117 15.10620117 C13.29564169 16.81802238 13.32369189 18.52995148 13.34643555 20.24194336 C13.38009032 22.70733479 13.43240974 25.17174281 13.48828125 27.63671875 C13.49467117 28.39836838 13.5010611 29.16001801 13.50764465 29.94474792 C13.6312449 34.44293556 14.20720447 37.42393767 17 41 C20.71968579 42.85984289 24.94976192 42.5731469 29 42 C32.62106493 39.33962577 34.24146341 37.35705647 35 33 C35.14952957 30.5300062 35.25559002 28.08138327 35.31640625 25.609375 C35.33718735 24.90476135 35.35796844 24.20014771 35.37937927 23.47418213 C35.44453837 21.23288319 35.50360248 18.99147136 35.5625 16.75 C35.60571726 15.22655103 35.64933257 13.70311329 35.69335938 12.1796875 C35.80018491 8.45324409 35.90154639 4.72667506 36 1 C39.96 1 43.92 1 48 1 C48.1242878 6.26521342 48.21466072 11.52955926 48.2746582 16.79589844 C48.29968775 18.58446136 48.33372244 20.37292317 48.37719727 22.16113281 C48.43836411 24.74309323 48.46632445 27.32369322 48.48828125 29.90625 C48.51408768 30.69616333 48.5398941 31.48607666 48.56648254 32.29992676 C48.56982479 39.02755547 46.14829477 43.66140082 41.55683899 48.53039551 C35.40748477 54.06357731 29.0217688 54.34110878 21.12109375 54.1796875 C14.81507647 53.81663769 10.21990423 52.31451315 5.67724609 47.91699219 C-1.79424352 39.37752545 -0.46983888 27.95007979 -0.25 17.375 C-0.22989933 15.68621916 -0.21165488 13.99741515 -0.1953125 12.30859375 C-0.15161015 8.20514889 -0.08278264 4.10283489 0 0 Z " fill="#072343" transform="translate(691,349)"/>
<path d="M0 0 C13.2 0 26.4 0 40 0 C40 2.97 40 5.94 40 9 C30.76 9 21.52 9 12 9 C12 12.96 12 16.92 12 21 C19.92 21 27.84 21 36 21 C36 23.97 36 26.94 36 30 C28.08 30 20.16 30 12 30 C12 33.96 12 37.92 12 42 C21.57 42 31.14 42 41 42 C41 45.3 41 48.6 41 52 C27.47 52 13.94 52 0 52 C0 34.84 0 17.68 0 0 Z " fill="#022041" transform="translate(822,350)"/>
<path d="M0 0 C3.4375 1.75 3.4375 1.75 4.2421875 3.625 C4.57058335 7.19794683 2.97098573 9.56034968 1.4375 12.75 C-4.3125 10.875 -4.3125 10.875 -6.5625 9.75 C-8.70573306 9.62728492 -10.85329002 9.57446605 -13 9.5625 C-14.15371094 9.54832031 -15.30742188 9.53414063 -16.49609375 9.51953125 C-19.73530168 9.51074912 -19.73530168 9.51074912 -22.5625 11.75 C-22.29215366 14.18717258 -22.29215366 14.18717258 -21.5625 16.75 C-17.54921955 19.4255203 -13.28075775 20.08852601 -8.63085938 21.07421875 C-2.76201048 22.4247677 1.39654684 24.81646543 5.8125 29 C7.95348653 32.62320797 8.08435768 35.69316417 7.4375 39.75 C5.61757984 44.90644045 2.87544532 47.61733271 -1.5625 50.75 C-6.29361284 52.71957536 -10.74120282 53.13633884 -15.8125 53.125 C-16.93313843 53.12258301 -16.93313843 53.12258301 -18.07641602 53.12011719 C-23.97453269 52.98988493 -29.62685547 52.24923157 -34.5625 48.75 C-35.90234375 46.84375 -35.90234375 46.84375 -36.5625 44.75 C-35.1875 41 -35.1875 41 -33.5625 37.75 C-30.42124304 38.2408214 -27.721065 39.07926844 -24.8125 40.3125 C-19.3229462 42.42945458 -14.0889967 42.57497851 -8.5 40.75 C-7.860625 40.42 -7.22125 40.09 -6.5625 39.75 C-6.5625 38.1 -6.5625 36.45 -6.5625 34.75 C-8.3534721 34.14377748 -10.14532538 33.54015822 -11.9375 32.9375 C-13.02933594 32.57011719 -14.12117187 32.20273437 -15.24609375 31.82421875 C-18.14937755 30.88381469 -21.05691162 30.05346757 -24 29.25 C-28.59897277 27.88433393 -32.10228649 26.168155 -34.6640625 21.92578125 C-36.30271806 17.95738496 -36.08280987 13.9591734 -35.5625 9.75 C-33.54677099 5.29859843 -30.56679179 2.11808937 -26.36328125 -0.3359375 C-18.36241735 -2.9470981 -8.01992006 -2.32087719 0 0 Z " fill="#082444" transform="translate(676.5625,350.25)"/>
<path d="M0 0 C3.96 0 7.92 0 12 0 C12 13.86 12 27.72 12 42 C20.58 42 29.16 42 38 42 C38 45.3 38 48.6 38 52 C25.46 52 12.92 52 0 52 C0 34.84 0 17.68 0 0 Z " fill="#082F5F" transform="translate(1032,350)"/>
<path d="M0 0 C16 0 16 0 22 3 C26.69938315 8.20742458 27.30072645 11.36942674 27.2109375 18.23828125 C26.93449406 21.85764255 26.14647854 24.06647933 24 27 C15.58059834 33.48995545 12.23514909 32 0 32 C0 21.44 0 10.88 0 0 Z " fill="#F4F7F8" transform="translate(1090,360)"/>
<path d="M0 0 C3.96 0 7.92 0 12 0 C12 17.16 12 34.32 12 52 C8.04 52 4.08 52 0 52 C0 34.84 0 17.68 0 0 Z " fill="#093161" transform="translate(1008,350)"/>
<path d="M0 0 C0.33 0 0.66 0 1 0 C2.27189518 10.71639344 3.31910128 21.43324654 4.17700195 32.19067383 C4.81166575 40.0316844 5.57333831 47.85692811 6.36120605 55.68371582 C7.64388492 68.45216548 8.5853434 81.17424244 9 94 C2.94965688 92.30916337 -2.36414871 89.3171076 -7.875 86.375 C-9.33679688 85.6015625 -9.33679688 85.6015625 -10.828125 84.8125 C-13.22093706 83.54571714 -15.61144536 82.27478682 -18 81 C-20.84785446 84.47393927 -22.78497506 88.30754889 -24.76196289 92.31274414 C-25.3091095 93.40900871 -25.3091095 93.40900871 -25.86730957 94.52742004 C-27.07277922 96.9448481 -28.27263521 99.36501953 -29.47265625 101.78515625 C-30.31839089 103.48290642 -31.16454358 105.18044839 -32.01109314 106.87779236 C-34.24479964 111.35851487 -36.47406049 115.84143299 -38.70202637 120.32501221 C-42.2412563 127.44650175 -45.78561665 134.56543131 -49.33294487 141.68288994 C-50.55657041 144.14014854 -51.77735379 146.59880253 -52.99781799 149.05763245 C-57.79956789 158.71213629 -62.73930006 168.28406143 -67.79133606 177.80999756 C-70.83269912 183.55426298 -73.73810908 189.36420683 -76.625 195.1875 C-77.15222656 196.24646484 -77.67945313 197.30542969 -78.22265625 198.39648438 C-79.48370116 200.93003824 -80.74283829 203.46451772 -82 206 C-83.13643966 202.59068103 -82.86747764 201.99664544 -81.5625 198.8125 C-81.27503906 198.09707031 -80.98757813 197.38164062 -80.69140625 196.64453125 C-80.46324219 196.10183594 -80.23507812 195.55914062 -80 195 C-79.34 195 -78.68 195 -78 195 C-78 193.35 -78 191.7 -78 190 C-77.34 190 -76.68 190 -76 190 C-76 188.68 -76 187.36 -76 186 C-75.34 186 -74.68 186 -74 186 C-73.81824219 185.41992188 -73.63648438 184.83984375 -73.44921875 184.2421875 C-71.9581894 179.60852707 -70.31666424 175.30237645 -68 171 C-67.34 171 -66.68 171 -66 171 C-66 169.68 -66 168.36 -66 167 C-65.34 167 -64.68 167 -64 167 C-63.8453125 165.9790625 -63.8453125 165.9790625 -63.6875 164.9375 C-62.85274981 161.37084011 -61.50527246 158.33777806 -60 155 C-59.34 155 -58.68 155 -58 155 C-57.855625 154.401875 -57.71125 153.80375 -57.5625 153.1875 C-57.1127561 151.43849596 -56.57107659 149.71322977 -56 148 C-55.34 148 -54.68 148 -54 148 C-54 146.02 -54 144.04 -54 142 C-53.01 142 -52.02 142 -51 142 C-50.75894531 140.87335938 -50.51789063 139.74671875 -50.26953125 138.5859375 C-49.02460998 133.61718238 -46.93839787 129.20810897 -44.6875 124.625 C-44.28595703 123.79226563 -43.88441406 122.95953125 -43.47070312 122.1015625 C-40.99314835 116.97834745 -38.47775147 111.87340563 -35.875 106.8125 C-34.87694337 104.84359635 -34.87694337 104.84359635 -34 102 C-33.34 102 -32.68 102 -32 102 C-31.86722656 101.42765625 -31.73445313 100.8553125 -31.59765625 100.265625 C-31.00619683 98.02349125 -30.26711146 95.91420381 -29.4375 93.75 C-29.16808594 93.04359375 -28.89867187 92.3371875 -28.62109375 91.609375 C-28.41613281 91.07828125 -28.21117187 90.5471875 -28 90 C-27.34 90 -26.68 90 -26 90 C-25.9175 89.484375 -25.835 88.96875 -25.75 88.4375 C-24.67859775 84.95544268 -22.86476395 82.12799115 -21 79 C-16.39533866 79.46046613 -13.03721049 80.83111678 -9.015625 82.95703125 C-7.14148851 83.92678792 -5.26325386 84.76099461 -3.3125 85.5625 C-0.35044378 86.84792062 2.25682016 88.31296776 5 90 C5.02689449 87.04160645 5.04678741 84.08345573 5.0625 81.125 C5.07506836 79.86236328 5.07506836 79.86236328 5.08789062 78.57421875 C5.09272461 77.36572266 5.09272461 77.36572266 5.09765625 76.1328125 C5.10551147 75.01737061 5.10551147 75.01737061 5.11352539 73.87939453 C5.11786636 71.90867432 5.11786636 71.90867432 4 70 C3.81277551 67.83651698 3.67602711 65.66859941 3.5625 63.5 C3.22482981 57.55175354 2.64926334 51.66454787 1.9375 45.75 C1.24761774 39.96714552 0.92030053 34.39267813 1.0625 28.5625 C0.99174792 25.66166474 0.5345713 22.97604691 0 20.125 C-1.1759448 13.76155403 -1.43059381 7.4589072 -1 1 C-0.67 0.67 -0.34 0.34 0 0 Z " fill="#1A4D90" transform="translate(415,270)"/>
<path d="M0 0 C30.69 0 61.38 0 93 0 C93 1.98 93 3.96 93 6 C62.31 6 31.62 6 0 6 C0 4.02 0 2.04 0 0 Z " fill="#798BA2" transform="translate(378,430)"/>
<path d="M0 0 C30.69 0 61.38 0 93 0 C93 1.98 93 3.96 93 6 C62.31 6 31.62 6 0 6 C0 4.02 0 2.04 0 0 Z " fill="#7B8DA4" transform="translate(378,408)"/>
<path d="M0 0 C2.68125 -0.103125 5.3625 -0.20625 8.125 -0.3125 C9.37434326 -0.38078003 9.37434326 -0.38078003 10.64892578 -0.45043945 C14.65768694 -0.52456949 17.28927531 -0.23239897 20.515625 2.26953125 C23 5 23 5 23.7265625 7.0625 C23.46593246 12.03451922 22.32029721 14.14417099 19 18 C19.10365195 21.42051447 20.97549616 23.35934282 23 26 C23 26.66 23 27.32 23 28 C20.75 28.375 20.75 28.375 18 28 C14 23.02702703 14 23.02702703 14 20 C11.03 20 8.06 20 5 20 C5 22.64 5 25.28 5 28 C3.35 28 1.7 28 0 28 C0 18.76 0 9.52 0 0 Z " fill="#737474" transform="translate(934,428)"/>
<path d="M0 0 C22.77 0 45.54 0 69 0 C69 2.31 69 4.62 69 7 C46.23 7 23.46 7 0 7 C0 4.69 0 2.38 0 0 Z " fill="#8797AB" transform="translate(402,386)"/>
<path d="M0 0 C2.536875 -0.061875 5.07375 -0.12375 7.6875 -0.1875 C8.47729248 -0.21481201 9.26708496 -0.24212402 10.08081055 -0.27026367 C14.60318145 -0.32344113 17.43303549 0.18325747 21 3 C22.7183093 6.4366186 22.38792805 10.2344225 22 14 C20.625 16.5625 20.625 16.5625 19 18 C18.34 18 17.68 18 17 18 C17.3609375 18.55429687 17.721875 19.10859375 18.09375 19.6796875 C18.5578125 20.40414063 19.021875 21.12859375 19.5 21.875 C20.19609375 22.95394531 20.19609375 22.95394531 20.90625 24.0546875 C22 26 22 26 22 28 C19.75 27.875 19.75 27.875 17 27 C16.4225 26.01 15.845 25.02 15.25 24 C13.36942387 20.85425178 13.36942387 20.85425178 10.75 20.3828125 C8.48892257 20.14963889 6.27244822 20.00971132 4 20 C4 22.64 4 25.28 4 28 C2.68 28 1.36 28 0 28 C0 18.76 0 9.52 0 0 Z " fill="#69696A" transform="translate(846,428)"/>
<path d="M0 0 C2.536875 -0.061875 5.07375 -0.12375 7.6875 -0.1875 C8.47729248 -0.21481201 9.26708496 -0.24212402 10.08081055 -0.27026367 C14.60318145 -0.32344113 17.43303549 0.18325747 21 3 C22.72105424 6.44210849 22.51474617 10.23633647 22 14 C20 16.5625 20 16.5625 18 18 C19.33488128 21.59391114 20.96022723 24.75490696 23 28 C20.8125 28.4375 20.8125 28.4375 18 28 C16.87109375 26.4765625 16.87109375 26.4765625 15.75 24.5625 C14.19372874 22.08047252 13.53252142 21.1580502 10.68359375 20.3125 C8.43846591 20.08763587 6.25531099 19.96560528 4 20 C4 22.64 4 25.28 4 28 C2.68 28 1.36 28 0 28 C0 18.76 0 9.52 0 0 Z " fill="#676868" transform="translate(571,428)"/>
<path d="M0 0 C7.26 0 14.52 0 22 0 C20.40896223 4.77311331 18.6116242 9.08364735 16.375 13.55078125 C16.02743652 14.25019333 15.67987305 14.94960541 15.32177734 15.67021179 C14.59089877 17.13768148 13.85795447 18.60412397 13.12304688 20.06958008 C11.99650697 22.31947618 10.88078535 24.57452422 9.765625 26.83007812 C9.05273137 28.25813619 8.33921182 29.68588199 7.625 31.11328125 C7.29161621 31.78925858 6.95823242 32.4652359 6.61474609 33.16169739 C4.22921778 37.88539111 4.22921778 37.88539111 2 39 C2.62136157 34.38417118 4.51593331 30.58926783 6.625 26.5 C6.97820312 25.80310059 7.33140625 25.10620117 7.6953125 24.38818359 C10.60030708 18.68842861 13.64198894 13.06820739 16.75 7.4765625 C18.15019661 5.16477991 18.15019661 5.16477991 18 3 C15.60043821 2.80984605 13.21597931 2.67205394 10.8125 2.5625 C9.80219727 2.47452148 9.80219727 2.47452148 8.77148438 2.38476562 C5.97098143 2.2891387 3.71569219 2.37286568 1.54980469 4.27075195 C-1.80643056 8.75631501 -4.06831908 13.98326188 -6.375 19.0625 C-7.16158645 20.75835751 -7.94935585 22.45366682 -8.73828125 24.1484375 C-9.12193848 24.97569336 -9.5055957 25.80294922 -9.90087891 26.65527344 C-12.48215819 32.16184969 -15.25875295 37.5718478 -18 43 C-19.48158509 45.95712563 -20.9595094 48.91607655 -22.4375 51.875 C-23.12363555 53.24742701 -23.80982774 54.61982572 -24.49609375 55.9921875 C-24.99238281 56.98476563 -25.48867188 57.97734375 -26 59 C-26.66 59 -27.32 59 -28 59 C-28.26949966 59.86497101 -28.53899933 60.72994202 -28.81666565 61.62112427 C-29.97621935 64.93209708 -31.35265395 67.93249143 -32.93334961 71.06201172 C-33.52413803 72.23698212 -34.11492645 73.41195251 -34.72361755 74.62252808 C-35.03778563 75.2426263 -35.3519537 75.86272453 -35.67564201 76.50161362 C-36.66762805 78.45985973 -37.65445533 80.42063059 -38.64002991 82.3821106 C-41.08888088 87.25319063 -43.54640378 92.11988254 -46.00372314 96.98669434 C-48.08211554 101.10383839 -50.15712719 105.22265309 -52.22778511 109.34369278 C-53.19436802 111.26400826 -54.16578413 113.18182447 -55.13743591 115.09957886 C-55.73761612 116.29266483 -56.33756775 117.48586582 -56.93725586 118.67919922 C-57.45750839 119.70923065 -57.97776093 120.73926208 -58.51377869 121.80050659 C-60.20798939 125.44775342 -61.58794411 129.23451762 -63 133 C-50.13 133 -37.26 133 -24 133 C-24 133.66 -24 134.32 -24 135 C-38.19 135 -52.38 135 -67 135 C-65.54324921 131.35812303 -64.04023544 127.95684108 -62.2918396 124.46342468 C-61.74217026 123.36271133 -61.19250092 122.26199799 -60.62617493 121.12792969 C-60.01953793 119.91819424 -59.41286245 118.70847808 -58.80615234 117.4987793 C-58.1652995 116.21735585 -57.52462307 114.93584417 -56.8841095 113.6542511 C-55.14847005 110.18268565 -53.41036923 106.71235781 -51.67182112 103.2422483 C-49.85396964 99.61280251 -48.03838815 95.98222157 -46.2225647 92.35176086 C-42.78534433 85.48042647 -39.34608617 78.61011415 -35.90609324 71.74016744 C-31.98918441 63.91753256 -28.07455093 56.09375986 -24.16010737 48.26989114 C-16.10926788 32.17866076 -8.055494 16.08890072 0 0 Z " fill="#275591" transform="translate(292,366)"/>
<path d="M0 0 C21.45 0 42.9 0 65 0 C65 2.31 65 4.62 65 7 C43.55 7 22.1 7 0 7 C0 4.69 0 2.38 0 0 Z " fill="#8393A9" transform="translate(378,451)"/>
<path d="M0 0 C3.70390021 2.02666238 5.65363011 3.48044516 8 7 C8.72517392 11.50282411 8.60000036 14.99285654 6.25 18.9375 C2.92728316 21.98332377 1.13018796 22.85349415 -3.375 23.4375 C-8.1853299 22.85694294 -9.61392593 21.38607407 -13 18 C-14.74221711 14.51556578 -14.58675154 10.80112955 -14 7 C-10.60242193 0.86407543 -6.79897031 -0.56658086 0 0 Z " fill="#F5FAFC" transform="translate(397,300)"/>
<path d="M0 0 C0.33 0 0.66 0 1 0 C1.02332844 17.45415735 1.0409789 34.90830985 1.05181217 52.36247921 C1.05697525 60.46618609 1.06401816 68.56988331 1.07543945 76.67358398 C1.08538594 83.73422122 1.09185334 90.79485146 1.09408849 97.85549551 C1.09539566 101.59634458 1.09848189 105.33717362 1.10573006 109.07801628 C1.11374324 113.24725113 1.11399116 117.41645084 1.11352539 121.58569336 C1.11712067 122.83509705 1.12071594 124.08450073 1.12442017 125.37176514 C1.1230455 126.50063644 1.12167084 127.62950775 1.12025452 128.79258728 C1.12163721 130.27344771 1.12163721 130.27344771 1.12304783 131.78422451 C1 134 1 134 0 135 C-2.68829833 135.0767537 -5.35119827 135.09061271 -8.0390625 135.0625 C-9.7399898 135.05403002 -11.44091756 135.0456515 -13.1418457 135.03735352 C-14.03714996 135.03115997 -14.93245422 135.02496643 -15.85488892 135.01858521 C-34.09168652 134.89213621 -34.09168652 134.89213621 -52.3125 135.5625 C-61.22439307 136.06367175 -70.00439185 135.83260932 -78.91699219 135.40429688 C-85.91020355 135.08977157 -92.87168809 134.96577318 -99.87109375 135 C-100.71502686 135.00378159 -101.55895996 135.00756317 -102.4284668 135.01145935 C-106.63246027 135.03397644 -110.83584104 135.07189333 -115.03955078 135.12524414 C-116.57975092 135.13710278 -118.1199527 135.14875034 -119.66015625 135.16015625 C-120.73009071 135.18039856 -120.73009071 135.18039856 -121.82164001 135.2010498 C-123.54903794 135.20987438 -125.27634051 135.11392721 -127 135 C-127.66 134.34 -128.32 133.68 -129 133 C-86.43 133 -43.86 133 0 133 C0 89.11 0 45.22 0 0 Z " fill="#072142" transform="translate(489,353)"/>
<path d="M0 0 C5.6883809 1.13767618 7.23628956 3.02540891 10.625 7.3125 C11.10195313 7.89451172 11.57890625 8.47652344 12.0703125 9.07617188 C14.45560102 12.00146322 16.73395411 14.97860547 19 18 C19.33 12.06 19.66 6.12 20 0 C21.65 0 23.3 0 25 0 C25 9.57 25 19.14 25 29 C19.57683777 27.91536755 19.19954531 27.63341362 16.125 23.5 C15.44695313 22.60539062 14.76890625 21.71078125 14.0703125 20.7890625 C13.38710938 19.86867188 12.70390625 18.94828125 12 18 C10.67024429 16.28888039 9.33718658 14.58031892 8 12.875 C7.01 11.59625 6.02 10.3175 5 9 C4.67 15.27 4.34 21.54 4 28 C2.68 28 1.36 28 0 28 C0 18.76 0 9.52 0 0 Z " fill="#747575" transform="translate(702,428)"/>
<path d="M0 0 C1.2065625 0.0309375 1.2065625 0.0309375 2.4375 0.0625 C4.44698822 4.16208756 6.44344928 8.26788426 8.4375 12.375 C9.00984375 13.54224609 9.5821875 14.70949219 10.171875 15.91210938 C10.71328125 17.03037109 11.2546875 18.14863281 11.8125 19.30078125 C12.31523438 20.33243408 12.81796875 21.36408691 13.3359375 22.42700195 C14.4375 25.0625 14.4375 25.0625 14.4375 28.0625 C12.0625 27.875 12.0625 27.875 9.4375 27.0625 C8.7775 25.4125 8.1175 23.7625 7.4375 22.0625 C2.4875 21.7325 -2.4625 21.4025 -7.5625 21.0625 C-8.2225 23.3725 -8.8825 25.6825 -9.5625 28.0625 C-11.2125 28.0625 -12.8625 28.0625 -14.5625 28.0625 C-12.57312264 21.70105262 -10.18162841 15.63375847 -7.4375 9.5625 C-7.07785156 8.75296875 -6.71820312 7.9434375 -6.34765625 7.109375 C-3.19769126 0.07799247 -3.19769126 0.07799247 0 0 Z " fill="#6B6C6C" transform="translate(824.5625,427.9375)"/>
<path d="M0 0 C1.65 0 3.3 0 5 0 C17 23.73786408 17 23.73786408 17 28 C15.68 28 14.36 28 13 28 C12.66355469 27.02804687 12.32710937 26.05609375 11.98046875 25.0546875 C10.25975855 21.62091276 10.25975855 21.62091276 6.42578125 21.1953125 C5.05551014 21.14235516 3.68378449 21.11987849 2.3125 21.125 C1.2596582 21.0940625 1.2596582 21.0940625 0.18554688 21.0625 C-1.54245468 21.01547955 -3.27136406 21.00425249 -5 21 C-5.66 23.31 -6.32 25.62 -7 28 C-8.65 28 -10.3 28 -12 28 C-8.48870435 18.40461605 -4.41768396 9.20456917 0 0 Z " fill="#6C6C6C" transform="translate(610,428)"/>
<path d="M0 0 C6.93 0 13.86 0 21 0 C19.72627602 3.82117194 18.62773253 6.99535248 16.87475586 10.51118469 C16.45418915 11.35940292 16.03362244 12.20762115 15.60031128 13.08154297 C15.14310699 13.99347412 14.68590271 14.90540527 14.21484375 15.8449707 C13.73008575 16.81959763 13.24532776 17.79422455 12.74588013 18.79838562 C11.14721063 22.00959203 9.54264128 25.21780546 7.9375 28.42578125 C6.82396063 30.65674672 5.71060048 32.88780164 4.59741211 35.11894226 C2.26656028 39.78810071 -0.06737935 44.45570012 -2.40332031 49.12231445 C-5.10533377 54.52028459 -7.79995302 59.92189994 -10.49104023 65.32532436 C-13.08172338 70.5263941 -15.67904318 75.72412508 -18.27902222 80.92055321 C-19.38454235 83.1321084 -20.48816097 85.34461515 -21.58987427 87.55806923 C-23.12584036 90.6422668 -24.66931667 93.722587 -26.21484375 96.80200195 C-26.90065018 98.18508041 -26.90065018 98.18508041 -27.60031128 99.59609985 C-28.02087799 100.43021896 -28.4414447 101.26433807 -28.87475586 102.12373352 C-29.42116982 103.21681304 -29.42116982 103.21681304 -29.97862244 104.33197498 C-31 106 -31 106 -33 107 C-33.1875 104.6875 -33.1875 104.6875 -33 102 C-32.02246356 100.97803008 -31.0194119 99.98020375 -30 99 C-28.79950593 95.89992799 -28.79950593 95.89992799 -28 93 C-27.34 93 -26.68 93 -26 93 C-25.67 90.69 -25.34 88.38 -25 86 C-24.34 86 -23.68 86 -23 86 C-22.67 84.35 -22.34 82.7 -22 81 C-21.34 81 -20.68 81 -20 81 C-19.731875 80.195625 -19.46375 79.39125 -19.1875 78.5625 C-17.79166667 74.375 -16.39583333 70.1875 -15 66 C-14.34 66 -13.68 66 -13 66 C-12.855625 65.05125 -12.71125 64.1025 -12.5625 63.125 C-12 60 -12 60 -11 58 C-10.34 58 -9.68 58 -9 58 C-8.87625 57.071875 -8.7525 56.14375 -8.625 55.1875 C-8 52 -8 52 -6 49 C-5.34 49 -4.68 49 -4 49 C-3.87625 47.9275 -3.7525 46.855 -3.625 45.75 C-3.10280215 42.6168129 -2.70882871 40.61350274 -1 38 C-0.34 37.67 0.32 37.34 1 37 C1.92559346 34.83240008 1.92559346 34.83240008 2.75 32.1875 C4.95291359 25.82909033 7.88309709 19.95328456 11 14 C11.66 14 12.32 14 13 14 C13 12.68 13 11.36 13 10 C13.66 10 14.32 10 15 10 C15.33 7.69 15.66 5.38 16 3 C7.55375218 1.87397825 7.55375218 1.87397825 -0.04296875 4.55859375 C-1.57361224 6.67440053 -1.57361224 6.67440053 -3 10 C-3.33 9.34 -3.66 8.68 -4 8 C-2.68 5.36 -1.36 2.72 0 0 Z " fill="#18498C" transform="translate(314,366)"/>
<path d="M0 0 C0 3.44360632 -0.79591532 4.74795392 -2.5 7.6875 C-2.9640625 8.49574219 -3.428125 9.30398438 -3.90625 10.13671875 C-4.2671875 10.75160156 -4.628125 11.36648438 -5 12 C-5.495 10.515 -5.495 10.515 -6 9 C-5.67 8.34 -5.34 7.68 -5 7 C-7.10786771 8.09753454 -9.21113454 9.2026396 -11.3125 10.3125 C-11.90740234 10.62123047 -12.50230469 10.92996094 -13.11523438 11.24804688 C-16.20657143 12.88870062 -18.57051202 14.51606971 -21 17 C-23.49876353 18.34801717 -26.05027939 19.523344 -28.625 20.71875 C-30.91038708 21.95165619 -32.21609039 23.15791942 -34 25 C-35.30696036 25.79506755 -36.64388332 26.54202732 -38 27.25 C-41.60487489 29.19288712 -45.06016478 31.27763455 -48.5 33.5 C-51.90060375 35.69562791 -55.31326101 37.76463427 -58.875 39.6875 C-64.39733085 42.70414692 -68.61914071 46.49397331 -73 51 C-71.68 51.66 -70.36 52.32 -69 53 C-69 53.66 -69 54.32 -69 55 C-68.29359375 55.11988281 -67.5871875 55.23976563 -66.859375 55.36328125 C-61.89173752 56.46946282 -57.33913092 58.33751502 -53 61 C-51.5625 63.8125 -51.5625 63.8125 -52 67 C-53.06400705 69.83735214 -54.4815376 72.38277444 -56 75 C-56.91736294 76.66628353 -57.83403665 78.3329467 -58.75 80 C-59.49828724 81.33429532 -60.2476589 82.66798625 -61 84 C-61.66 84 -62.32 84 -63 84 C-61.55959835 78.67051389 -58.95580836 74.28676152 -56.14453125 69.5859375 C-54.84426574 67.16971802 -54.84426574 67.16971802 -55.09423828 65.02685547 C-56.44568858 62.00266669 -58.40035872 61.40401569 -61.34765625 59.984375 C-62.42724609 59.45585937 -63.50683594 58.92734375 -64.61914062 58.3828125 C-65.75544922 57.84398437 -66.89175781 57.30515625 -68.0625 56.75 C-69.20267578 56.19570313 -70.34285156 55.64140625 -71.51757812 55.0703125 C-74.33920568 53.70081963 -77.16653325 52.34478185 -80 51 C-80 50.34 -80 49.68 -80 49 C-78.234375 47.73828125 -78.234375 47.73828125 -75.75 46.3125 C-74.84024414 45.78422607 -73.93048828 45.25595215 -72.99316406 44.71166992 C-72.00541992 44.14681885 -71.01767578 43.58196777 -70 43 C-67.95222434 41.81014246 -65.90535296 40.6187273 -63.859375 39.42578125 C-62.34633789 38.545271 -62.34633789 38.545271 -60.80273438 37.64697266 C-57.24446735 35.55602585 -53.73803678 33.39305905 -50.25 31.1875 C-43.19939204 26.73801485 -36.10433554 22.3631246 -29 18 C-19.30584756 12.0433437 -9.63375264 6.05383852 0 0 Z " fill="#3983BE" transform="translate(415,268)"/>
<path d="M0 0 C3.5578125 -0.12375 3.5578125 -0.12375 7.1875 -0.25 C7.92508545 -0.28641602 8.6626709 -0.32283203 9.42260742 -0.36035156 C12.92512198 -0.41900272 14.91829686 -0.04804794 17.94921875 1.734375 C20.21498165 4.23750354 20.68185584 5.17961871 20.625 8.5 C20.63789062 9.2528125 20.65078125 10.005625 20.6640625 10.78125 C19.6428569 14.19327814 18.03636635 15.21437529 15 17 C12.20704934 17.28942494 9.94329617 17.38605897 7.1875 17.25 C4.815625 17.1675 2.44375 17.085 0 17 C0 11.39 0 5.78 0 0 Z " fill="#EFF5F8" transform="translate(1201,360)"/>
<path d="M0 0 C3.5578125 -0.12375 3.5578125 -0.12375 7.1875 -0.25 C7.92508545 -0.28641602 8.6626709 -0.32283203 9.42260742 -0.36035156 C12.94899061 -0.41940241 14.91199332 -0.05280401 17.94921875 1.76953125 C20.38974969 4.42389919 20.59320893 6.33840915 20.6640625 9.90234375 C19.58031613 13.32570729 17.82067369 14.83312485 15 17 C12.11628549 17.37353815 10.01710038 17.48712853 7.1875 17.3125 C4.815625 17.209375 2.44375 17.10625 0 17 C0 11.39 0 5.78 0 0 Z " fill="#F7F9FB" transform="translate(551,360)"/>
<path d="M0 0 C1.65 0 3.3 0 5 0 C5.02187378 0.92280762 5.02187378 0.92280762 5.04418945 1.86425781 C5.11880577 4.66012854 5.2154198 7.45482287 5.3125 10.25 C5.33505859 11.21808594 5.35761719 12.18617188 5.38085938 13.18359375 C5.41630859 14.11816406 5.45175781 15.05273438 5.48828125 16.015625 C5.51446533 16.87446289 5.54064941 17.73330078 5.56762695 18.61816406 C6.09165897 21.50492653 6.94996448 22.91465485 9 25 C13.60228101 25.63037741 13.60228101 25.63037741 17.68676758 23.79174805 C19.42727 21.41704136 19.42707995 19.82303362 19.51171875 16.89453125 C19.54716797 15.91162109 19.58261719 14.92871094 19.61914062 13.91601562 C19.64169922 12.89185547 19.66425781 11.86769531 19.6875 10.8125 C19.72166016 9.77673828 19.75582031 8.74097656 19.79101562 7.67382812 C19.87352642 5.1159934 19.94266572 2.55850277 20 0 C21.65 0 23.3 0 25 0 C25.08745946 3.3956697 25.14054444 6.79104773 25.1875 10.1875 C25.21263672 11.14720703 25.23777344 12.10691406 25.26367188 13.09570312 C25.32915802 19.40420189 24.67768484 22.87603435 20.5 27.75 C17.07258506 30.60617912 13.23733241 30.29222982 9 30 C4.6645877 28.18517625 1.82951795 25.3201903 0 21 C-0.47586171 17.35884368 -0.37908435 13.78900949 -0.25 10.125 C-0.23195313 9.15046875 -0.21390625 8.1759375 -0.1953125 7.171875 C-0.14841734 4.78022193 -0.08280907 2.39063403 0 0 Z " fill="#787878" transform="translate(1005,427)"/>
<path d="M0 0 C0.33 0 0.66 0 1 0 C1 14.85 1 29.7 1 45 C0.67 45 0.34 45 0 45 C-0.33 32.79 -0.66 20.58 -1 8 C-12.42740006 27.63918362 -12.42740006 27.63918362 -11 57 C39.82 57.33 90.64 57.66 143 58 C143 58.33 143 58.66 143 59 C91.52 59 40.04 59 -13 59 C-13 13 -13 13 0 0 Z " fill="#011736" transform="translate(359,441)"/>
<path d="M0 0 C0.495 0.99 0.495 0.99 1 2 C-0.21166855 4.79362421 -1.49431675 7.47008635 -2.87792969 10.17822266 C-3.30212189 11.02397858 -3.72631409 11.8697345 -4.1633606 12.74111938 C-5.57557286 15.55250234 -6.99884742 18.35814061 -8.421875 21.1640625 C-9.40341912 23.11461292 -10.38414171 25.06557693 -11.36407471 27.01693726 C-13.95371205 32.16953278 -16.55218963 37.31761451 -19.15319824 42.46447754 C-23.30438393 50.68084851 -27.44510977 58.90247251 -31.58042145 67.1268425 C-33.02510335 69.99582632 -34.47525145 72.86199789 -35.92596436 75.72793579 C-36.81899627 77.50033188 -37.71184825 79.27281864 -38.60449219 81.04541016 C-39.0067099 81.83637085 -39.40892761 82.62733154 -39.82333374 83.44226074 C-42.21662803 88.2095439 -44.15989629 92.99438284 -46 98 C-46.98387706 99.67623498 -47.97862543 101.34634594 -49 103 C-49 103.66 -49 104.32 -49 105 C-36.46 105.33 -23.92 105.66 -11 106 C-10.67 103.69 -10.34 101.38 -10 99 C-9.01 98.67 -8.02 98.34 -7 98 C-6.896875 96.906875 -6.79375 95.81375 -6.6875 94.6875 C-5.988068 90.93600108 -5.74005005 90.30164205 -3 88 C-1.82425289 85.90010348 -1.82425289 85.90010348 -1 84 C-0.01 84.495 -0.01 84.495 1 85 C-0.80927682 88.64744162 -2.6229575 92.29267548 -4.4375 95.9375 C-4.95376953 96.97841797 -5.47003906 98.01933594 -6.00195312 99.09179688 C-6.49501953 100.08115234 -6.98808594 101.07050781 -7.49609375 102.08984375 C-7.95169678 103.00628662 -8.4072998 103.92272949 -8.87670898 104.86694336 C-10 107 -10 107 -11 108 C-14.10251201 108.08874135 -17.1826812 108.11518455 -20.28515625 108.09765625 C-21.21597519 108.0962413 -22.14679413 108.09482635 -23.1058197 108.09336853 C-26.09141191 108.08775172 -29.07693029 108.0751964 -32.0625 108.0625 C-34.08137913 108.05748716 -36.10025943 108.05292388 -38.11914062 108.04882812 C-43.07945572 108.03777683 -48.03971532 108.02050095 -53 108 C-52.41733273 104.52052192 -51.52861315 101.68354254 -49.95031738 98.53314209 C-49.52126602 97.66947021 -49.09221466 96.80579834 -48.65016174 95.91595459 C-48.1784404 94.98172668 -47.70671906 94.04749878 -47.22070312 93.08496094 C-46.72473129 92.0909729 -46.22875946 91.09698486 -45.71775818 90.07287598 C-44.07804511 86.79044331 -42.42978165 83.51238642 -40.78125 80.234375 C-39.64117627 77.95728484 -38.50157477 75.67995819 -37.36242676 73.40240479 C-34.97524445 68.63264212 -32.58430308 63.86479342 -30.18994141 59.09863281 C-27.11389359 52.9754643 -24.04530516 46.84858925 -20.97904205 40.7205162 C-18.62713164 36.02024328 -16.27247831 31.32134599 -13.91722107 26.62274933 C-12.78448317 24.36298754 -11.65212869 22.10303351 -10.52015686 19.84288788 C-8.94196997 16.69335291 -7.36107926 13.54519135 -5.77929688 10.39746094 C-5.07171486 8.98397369 -5.07171486 8.98397369 -4.34983826 7.54193115 C-3.70626122 6.26334229 -3.70626122 6.26334229 -3.04968262 4.95892334 C-2.67581169 4.21415615 -2.30194077 3.46938896 -1.91674042 2.70205307 C-1 1 -1 1 0 0 Z " fill="#2A5D97" transform="translate(331,393)"/>
<path d="M0 0 C0 1.32 0 2.64 0 4 C-0.86625 3.67 -1.7325 3.34 -2.625 3 C-6.10189635 1.96980849 -8.40818368 1.55102296 -12 2 C-16.22481746 4.2758823 -16.22481746 4.2758823 -19 8 C-19.37712577 12.99691647 -19.09290612 15.99067725 -16 20 C-12.33134759 22.44576827 -10.32799657 22.23607254 -6 22 C-5.34 21.67 -4.68 21.34 -4 21 C-3.53348793 18.87423218 -3.53348793 18.87423218 -3.375 16.4375 C-3.30023437 15.61121094 -3.22546875 14.78492188 -3.1484375 13.93359375 C-3.09945312 13.29550781 -3.05046875 12.65742188 -3 12 C-1.68 12 -0.36 12 1 12 C1 15.96 1 19.92 1 24 C-4.34329773 26.67164887 -8.01034321 27.66551742 -14 27 C-18.80232849 24.59883576 -21.70264475 21.85978996 -24 17 C-24.81282263 12.36130532 -25.09593346 8.04622792 -22.82421875 3.8046875 C-16.55029159 -3.94450418 -8.65056437 -5.063745 0 0 Z " fill="#6A6C6B" transform="translate(759,430)"/>
<path d="M0 0 C6.93 0 13.86 0 21 0 C19.47374859 4.57875422 17.90218717 8.44381563 15.76293945 12.71704102 C15.44227005 13.36027817 15.12160065 14.00351532 14.79121399 14.66624451 C13.73579492 16.78076962 12.67466341 18.89236883 11.61328125 21.00390625 C10.87032818 22.48861809 10.12767272 23.97347889 9.38529968 25.45848083 C7.82843225 28.57065378 6.26889462 31.68146853 4.70727539 34.79125977 C2.72425243 38.74042932 0.74641393 42.69216551 -1.22955608 46.6448679 C-2.76459742 49.71467584 -4.30173917 52.78342819 -5.83954811 55.85185051 C-6.56828943 57.3061904 -7.29657422 58.76075916 -8.02435875 60.21557808 C-12.53529131 69.22771692 -17.16601141 78.15631174 -22 87 C-22.96862277 83.62065154 -22.92663319 82.02391967 -21.5625 78.75 C-21.27503906 78.04359375 -20.98757812 77.3371875 -20.69140625 76.609375 C-20.34916016 75.81273437 -20.34916016 75.81273437 -20 75 C-19.34 75 -18.68 75 -18 75 C-18 73.35 -18 71.7 -18 70 C-17.360625 69.773125 -16.72125 69.54625 -16.0625 69.3125 C-13.78388052 68.19250904 -13.78388052 68.19250904 -13.4375 65.8125 C-13.293125 64.884375 -13.14875 63.95625 -13 63 C-12.09098644 60.6187797 -11.04861938 58.3251995 -10 56 C-9.34 56 -8.68 56 -8 56 C-7.8453125 54.9790625 -7.8453125 54.9790625 -7.6875 53.9375 C-6.21756154 47.65685386 -3.01295248 41.86217762 -0.125 36.125 C0.22433594 35.42826172 0.57367188 34.73152344 0.93359375 34.01367188 C3.49386756 28.93563803 6.1544645 23.92496529 9 19 C9.66 19 10.32 19 11 19 C11.33 16.69 11.66 14.38 12 12 C12.66 12 13.32 12 14 12 C13.95875 11.236875 13.9175 10.47375 13.875 9.6875 C14 7 14 7 16 4 C9.98655091 2.54219416 4.65590719 2.25774197 -1 5 C-0.67 3.35 -0.34 1.7 0 0 Z " fill="#1D4989" transform="translate(239,412)"/>
<path d="M0 0 C3.08356805 -0.05399244 6.16618888 -0.09366955 9.25 -0.125 C10.55904297 -0.15013672 10.55904297 -0.15013672 11.89453125 -0.17578125 C12.73886719 -0.18222656 13.58320312 -0.18867188 14.453125 -0.1953125 C15.22817383 -0.20578613 16.00322266 -0.21625977 16.80175781 -0.22705078 C19.34283954 0.03541101 20.89445698 0.54945 23 2 C23.75 5.625 23.75 5.625 24 9 C20.99833199 11.61289776 19.20372689 12.36930244 15.234375 12.29296875 C14.34492187 12.28330078 13.45546875 12.27363281 12.5390625 12.26367188 C11.61867188 12.23853516 10.69828125 12.21339844 9.75 12.1875 C8.34621094 12.16719727 8.34621094 12.16719727 6.9140625 12.14648438 C4.60912779 12.11120476 2.30448995 12.05739966 0 12 C0 8.04 0 4.08 0 0 Z " fill="#F3F7FA" transform="translate(905,380)"/>
<path d="M0 0 C2.79827632 1.11833382 5.39726245 2.48567997 8 4 C7.67 4.99 7.34 5.98 7 7 C6.38125 6.835 5.7625 6.67 5.125 6.5 C-2.9835719 5.20043213 -2.9835719 5.20043213 -10.625 7.4375 C-12.97864892 11.82384572 -12.45598116 16.40228914 -11.61328125 21.203125 C-11.14002835 23.22842943 -11.14002835 23.22842943 -8.875 24.25 C-5.43691712 25.14689119 -2.54053347 25.26226174 1 25 C1.99 24.34 2.98 23.68 4 23 C6.1875 23.375 6.1875 23.375 8 24 C7.02703346 26.65354511 6.34207577 27.79877896 3.875 29.25 C-1.88829321 30.75346779 -6.11373723 30.84269096 -11.3125 27.9375 C-15.19051522 25.2327939 -16.72724925 22.61372147 -18 18 C-18.52651308 13.71267923 -18.34132971 11.64473389 -16.3125 7.8125 C-11.42889938 1.87298573 -7.72157717 -0.62270784 0 0 Z " fill="#707070" transform="translate(1086,427)"/>
<path d="M0 0 C0.99 0.33 1.98 0.66 3 1 C2.67 2.32 2.34 3.64 2 5 C1.22914062 4.91621094 0.45828125 4.83242188 -0.3359375 4.74609375 C-1.33882812 4.64425781 -2.34171875 4.54242188 -3.375 4.4375 C-4.37273437 4.33308594 -5.37046875 4.22867187 -6.3984375 4.12109375 C-8.984037 3.78855292 -8.984037 3.78855292 -11 5 C-11 6.65 -11 8.3 -11 10 C-10.16855469 10.25394531 -9.33710937 10.50789063 -8.48046875 10.76953125 C-7.39378906 11.11371094 -6.30710937 11.45789063 -5.1875 11.8125 C-3.56908203 12.31716797 -3.56908203 12.31716797 -1.91796875 12.83203125 C0.85251297 13.9409657 2.27139986 14.60837515 4 17 C4.4375 20.4375 4.4375 20.4375 4 24 C2.13291495 26.36497439 0.67938569 27.66030715 -2 29 C-7.99203232 29.40623948 -11.64198848 28.67900576 -17 26 C-16.67 24.68 -16.34 23.36 -16 22 C-15.34 22.33 -14.68 22.66 -14 23 C-10.09580421 24.3013986 -7.11178021 24.2022187 -3 24 C-2.34 23.67 -1.68 23.34 -1 23 C-1.33 21.35 -1.66 19.7 -2 18 C-2.66386719 17.82984375 -3.32773438 17.6596875 -4.01171875 17.484375 C-13.72757022 14.81783474 -13.72757022 14.81783474 -17 11 C-17.83040529 7.09709512 -17.32088154 5.52716253 -15.25 2.125 C-10.38242259 -1.05764677 -5.66482677 -0.56486877 0 0 Z " fill="#6D6F6F" transform="translate(1173,428)"/>
<path d="M0 0 C1.8671875 1.52734375 1.8671875 1.52734375 3 3 C2.67 3.66 2.34 4.32 2 5 C1.319375 4.835 0.63875 4.67 -0.0625 4.5 C-3.45315882 3.92286658 -6.56650292 3.80565111 -10 4 C-10.66 4.66 -11.32 5.32 -12 6 C-12.13834658 8.07063047 -12.13834658 8.07063047 -11 10 C-8.32756042 11.26111927 -8.32756042 11.26111927 -5.125 12.0625 C1.85380805 14.02161118 1.85380805 14.02161118 4 17 C4.5 20.4375 4.5 20.4375 4 24 C0.33922291 27.75971702 -2.59212864 28.90768057 -7.8125 29.25 C-11.81527043 29.22040465 -14.54750249 28.0714985 -18 26 C-17.67 24.68 -17.34 23.36 -17 22 C-16.360625 22.33 -15.72125 22.66 -15.0625 23 C-10.67317023 24.43325054 -5.25102229 25.12551114 -1 23 C-1.495 20.525 -1.495 20.525 -2 18 C-2.74765625 17.82984375 -3.4953125 17.6596875 -4.265625 17.484375 C-5.25046875 17.24203125 -6.2353125 16.9996875 -7.25 16.75 C-8.22453125 16.51796875 -9.1990625 16.2859375 -10.203125 16.046875 C-13.3773595 14.85875371 -14.90121514 13.6418271 -17 11 C-17.65373541 6.932313 -17.67547804 4.94084442 -15.25 1.5625 C-10.36400217 -0.78653742 -5.33147527 -0.84301105 0 0 Z " fill="#6D6D6D" transform="translate(994,428)"/>
<path d="M0 0 C1.72089844 0.03673828 1.72089844 0.03673828 3.4765625 0.07421875 C6.375 0.3125 6.375 0.3125 8.375 1.3125 C8.375 2.6325 8.375 3.9525 8.375 5.3125 C7.694375 5.1475 7.01375 4.9825 6.3125 4.8125 C2.92184118 4.23536658 -0.19150292 4.11815111 -3.625 4.3125 C-4.285 4.9725 -4.945 5.6325 -5.625 6.3125 C-5.76334658 8.38313047 -5.76334658 8.38313047 -4.625 10.3125 C-1.95256042 11.57361927 -1.95256042 11.57361927 1.25 12.375 C8.17722974 14.31963196 8.17722974 14.31963196 10.375 17.3125 C10.95747667 21.14020384 10.68335107 22.81693579 8.625 26.125 C4.89276348 29.75356328 1.56958983 29.58549318 -3.5859375 29.546875 C-6.65620182 29.19397106 -9.00557632 27.88415421 -11.625 26.3125 C-11.295 24.9925 -10.965 23.6725 -10.625 22.3125 C-9.985625 22.6425 -9.34625 22.9725 -8.6875 23.3125 C-4.29817023 24.74575054 1.12397771 25.43801114 5.375 23.3125 C5.375 21.9925 5.375 20.6725 5.375 19.3125 C4.55515625 19.07015625 3.7353125 18.8278125 2.890625 18.578125 C1.27414062 18.07539063 1.27414062 18.07539063 -0.375 17.5625 C-1.97601562 17.07523437 -1.97601562 17.07523437 -3.609375 16.578125 C-6.81346475 15.2334034 -8.48189523 14.02709937 -10.625 11.3125 C-11.177723 7.44343903 -11.3604306 5.31261456 -9.0078125 2.11328125 C-5.854038 -0.27014505 -3.9105841 -0.1279988 0 0 Z " fill="#6B6C6C" transform="translate(1139.625,427.6875)"/>
<path d="M0 0 C6.6 0 13.2 0 20 0 C20 0.99 20 1.98 20 3 C14.72 3 9.44 3 4 3 C4 5.97 4 8.94 4 12 C8.62 12 13.24 12 18 12 C18 13.32 18 14.64 18 16 C13.38 16 8.76 16 4 16 C4 18.97 4 21.94 4 25 C9.28 25 14.56 25 20 25 C20 25.99 20 26.98 20 28 C13.4 28 6.8 28 0 28 C0 18.76 0 9.52 0 0 Z " fill="#676868" transform="translate(877,428)"/>
<path d="M0 0 C1.67255859 0.00193359 1.67255859 0.00193359 3.37890625 0.00390625 C6.64706222 0.46720805 8.04236856 1.2297627 10.4375 3.4375 C10.1075 4.4275 9.7775 5.4175 9.4375 6.4375 C8.81875 6.2725 8.2 6.1075 7.5625 5.9375 C3.14297799 5.23037648 -1.11032011 4.7918213 -5.5625 5.4375 C-8.34853893 7.56019633 -9.2783234 8.93801498 -9.9296875 12.375 C-10.17762462 16.22531768 -9.8049165 18.05771414 -7.6875 21.375 C-4.87369887 24.10604228 -4.10695888 24.40780224 -0.125 24.625 C3.54288099 24.73572517 3.54288099 24.73572517 6.4375 22.4375 C8.625 22.8125 8.625 22.8125 10.4375 23.4375 C9.46453346 26.09104511 8.77957577 27.23627896 6.3125 28.6875 C1.10167363 30.04684601 -3.4388848 30.30109879 -8.3125 27.9375 C-12.30338324 25.35301497 -14.14753571 21.9000797 -15.5625 17.4375 C-16.16030213 13.10343458 -15.92510653 11.12242344 -13.875 7.25 C-9.63807532 2.0969835 -6.80940313 -0.11835579 0 0 Z " fill="#6C6D6C" transform="translate(1052.5625,427.5625)"/>
<path d="M0 0 C6.27 0 12.54 0 19 0 C19 1.32 19 2.64 19 4 C14.05 4 9.1 4 4 4 C4 6.64 4 9.28 4 12 C8.62 12 13.24 12 18 12 C18 12.99 18 13.98 18 15 C13.38 15 8.76 15 4 15 C4 18.3 4 21.6 4 25 C9.28 25 14.56 25 20 25 C20 25.99 20 26.98 20 28 C13.4 28 6.8 28 0 28 C0 18.76 0 9.52 0 0 Z " fill="#6A6B6A" transform="translate(1102,428)"/>
<path d="M0 0 C6.27 0 12.54 0 19 0 C19 0.99 19 1.98 19 3 C14.05 3 9.1 3 4 3 C4 5.97 4 8.94 4 12 C8.62 12 13.24 12 18 12 C18 13.32 18 14.64 18 16 C13.38 16 8.76 16 4 16 C4 18.97 4 21.94 4 25 C9.28 25 14.56 25 20 25 C20 25.99 20 26.98 20 28 C13.4 28 6.8 28 0 28 C0 18.76 0 9.52 0 0 Z " fill="#686869" transform="translate(906,428)"/>
<path d="M0 0 C1.71316406 -0.03867187 1.71316406 -0.03867187 3.4609375 -0.078125 C6.85436235 0.27378573 8.17208921 0.95417216 10.625 3.25 C9.965 4.57 9.305 5.89 8.625 7.25 C7.635 6.59 6.645 5.93 5.625 5.25 C0.58826199 4.51948075 -3.88911267 4.14422338 -8.0625 7.25 C-9.73862891 11.08115179 -10.22283384 14.13551226 -9.375 18.25 C-7.58136089 21.0600346 -6.35619065 22.75940468 -3.375 24.25 C1.45112943 24.52843054 5.12407826 24.00645727 9.625 22.25 C9.625 23.57 9.625 24.89 9.625 26.25 C4.90193017 29.0838419 1.03351387 30.2235325 -4.375 29.25 C-8.68642745 27.01137421 -12.05176187 24.53905501 -14.375 20.25 C-15.19507499 15.28713241 -15.60168992 10.45280598 -13.09375 5.94921875 C-8.99053702 1.09173868 -6.391352 0.08617553 0 0 Z " fill="#666767" transform="translate(795.375,427.75)"/>
<path d="M0 0 C1.03769531 -0.02578125 2.07539062 -0.0515625 3.14453125 -0.078125 C6.54901636 0.28898251 8.41142285 1.3000752 11.1875 3.25 C10.8575 4.24 10.5275 5.23 10.1875 6.25 C5.4375 5.375 5.4375 5.375 3.1875 4.25 C-0.68464182 3.81976202 -2.33746371 3.93330914 -5.625 6.125 C-8.62404054 9.03835367 -8.77440144 9.78519761 -9.125 14.0625 C-9.09482024 17.38227327 -8.8185988 18.24044521 -6.9375 21.1875 C-4.12369887 23.91854228 -3.35695888 24.22030224 0.625 24.4375 C4.29288099 24.54822517 4.29288099 24.54822517 7.1875 22.25 C9.375 22.625 9.375 22.625 11.1875 23.25 C10.22770277 25.64949307 9.61675433 26.98612938 7.3828125 28.359375 C3.66840797 29.86628645 0.12464326 29.80462366 -3.8125 29.25 C-7.125 27.5625 -7.125 27.5625 -9.8125 25.25 C-10.59625 24.59 -11.38 23.93 -12.1875 23.25 C-14.8119418 18.40487667 -14.7771766 13.6195602 -13.8125 8.25 C-10.41551422 2.14992493 -6.8597297 0.10150032 0 0 Z " fill="#6B6B6B" transform="translate(551.8125,427.75)"/>
<path d="M0 0 C2.7302389 -0.1083667 5.45614543 -0.18746694 8.1875 -0.25 C8.95642578 -0.28351563 9.72535156 -0.31703125 10.51757812 -0.3515625 C14.64610431 -0.42243849 16.50155164 -0.32932056 20.05078125 2.015625 C20.69402344 2.67046875 21.33726562 3.3253125 22 4 C21.69616494 6.81047432 21.42373356 8.53212752 19.5 10.65625 C15.78885934 12.65098811 12.38949539 12.32136428 8.25 12.1875 C7.45722656 12.17396484 6.66445313 12.16042969 5.84765625 12.14648438 C3.89814436 12.11125223 1.94898374 12.05744821 0 12 C0 8.04 0 4.08 0 0 Z " fill="#EDF2F6" transform="translate(905,359)"/>
<path d="M0 0 C6.6 0 13.2 0 20 0 C20 1.32 20 2.64 20 4 C14.72 4 9.44 4 4 4 C4 6.97 4 9.94 4 13 C8.62 13 13.24 13 18 13 C18 14.32 18 15.64 18 17 C13.38 17 8.76 17 4 17 C4 20.63 4 24.26 4 28 C2.68 28 1.36 28 0 28 C0 18.76 0 9.52 0 0 Z " fill="#6C6E6E" transform="translate(634,428)"/>
<path d="M0 0 C9.9 0 19.8 0 30 0 C30 0.66 30 1.32 30 2 C20.76 2 11.52 2 2 2 C2 18.5 2 35 2 52 C4.97 52 7.94 52 11 52 C10.98839844 51.00097656 10.97679687 50.00195312 10.96484375 48.97265625 C10.95582031 47.68230469 10.94679688 46.39195312 10.9375 45.0625 C10.92589844 43.77472656 10.91429687 42.48695313 10.90234375 41.16015625 C11 38 11 38 12 37 C14.01964199 36.92755947 16.04167124 36.91622812 18.0625 36.9375 C19.16722656 36.94652344 20.27195312 36.95554687 21.41015625 36.96484375 C22.26480469 36.97644531 23.11945313 36.98804688 24 37 C24 37.33 24 37.66 24 38 C20.37 38 16.74 38 13 38 C13 43.28 13 48.56 13 54 C8.71 54 4.42 54 0 54 C0 36.18 0 18.36 0 0 Z " fill="#334D6E" transform="translate(1188,349)"/>
<path d="M0 0 C7.59 0 15.18 0 23 0 C23 1.32 23 2.64 23 4 C20.03 4 17.06 4 14 4 C14 12.25 14 20.5 14 29 C12.35 29 10.7 29 9 29 C9 20.75 9 12.5 9 4 C6.03 4 3.06 4 0 4 C0 2.68 0 1.36 0 0 Z " fill="#737475" transform="translate(658,428)"/>
<path d="M0 0 C7.26 0 14.52 0 22 0 C20.40896223 4.77311331 18.6116242 9.08364735 16.375 13.55078125 C16.02743652 14.25019333 15.67987305 14.94960541 15.32177734 15.67021179 C14.59089877 17.13768148 13.85795447 18.60412397 13.12304688 20.06958008 C11.99650697 22.31947618 10.88078535 24.57452422 9.765625 26.83007812 C9.05273137 28.25813619 8.33921182 29.68588199 7.625 31.11328125 C7.29161621 31.78925858 6.95823242 32.4652359 6.61474609 33.16169739 C4.22921778 37.88539111 4.22921778 37.88539111 2 39 C2.62136157 34.38417118 4.51593331 30.58926783 6.625 26.5 C7.15480469 25.45465088 7.15480469 25.45465088 7.6953125 24.38818359 C10.60030708 18.68842861 13.64198894 13.06820739 16.75 7.4765625 C18.15019661 5.16477991 18.15019661 5.16477991 18 3 C15.60043821 2.80984605 13.21597931 2.67205394 10.8125 2.5625 C9.80219727 2.47452148 9.80219727 2.47452148 8.77148438 2.38476562 C5.97098143 2.2891387 3.71569219 2.37286568 1.54980469 4.27075195 C-1.80636185 8.75622318 -4.06867221 13.9832045 -6.375 19.0625 C-7.15108833 20.7375614 -7.92844575 22.41203535 -8.70703125 24.0859375 C-9.08939941 24.91061523 -9.47176758 25.73529297 -9.86572266 26.58496094 C-12.46207822 32.11297412 -15.23697081 37.55390067 -18 43 C-18.66 42.01 -19.32 41.02 -20 40 C-13.4 26.8 -6.8 13.6 0 0 Z " fill="#307BB7" transform="translate(292,366)"/>
<path d="M0 0 C9.57 0 19.14 0 29 0 C29.33 0.66 29.66 1.32 30 2 C20.76 2 11.52 2 2 2 C2 18.5 2 35 2 52 C10.58 52 19.16 52 28 52 C28 52.33 28 52.66 28 53 C18.76 53 9.52 53 0 53 C0 35.51 0 18.02 0 0 Z " fill="#2A4363" transform="translate(1077,349)"/>
<path d="M0 0 C10.48893081 -0.37019756 10.48893081 -0.37019756 12.828125 1.32421875 C14.66769486 3.95480366 14.45354771 5.88995859 14 9 C11.80816743 11.16160039 10.50039296 11.94313716 7.421875 12.29296875 C6.54015625 12.25816406 5.6584375 12.22335937 4.75 12.1875 C3.1825 12.125625 1.615 12.06375 0 12 C0 8.04 0 4.08 0 0 Z " fill="#F8F8F8" transform="translate(850,432)"/>
<path d="M0 0 C10.46606289 -0.36939045 10.46606289 -0.36939045 12.86328125 1.2890625 C14 3 14 3 13.875 6.5625 C13 10 13 10 10 12 C6.64683663 12.26402861 3.36941342 12.08751723 0 12 C0 8.04 0 4.08 0 0 Z " fill="#F7F7F7" transform="translate(575,432)"/>
<path d="M0 0 C1.65 0 3.3 0 5 0 C7.00948822 4.09958756 9.00594928 8.20538426 11 12.3125 C11.57234375 13.47974609 12.1446875 14.64699219 12.734375 15.84960938 C13.27578125 16.96787109 13.8171875 18.08613281 14.375 19.23828125 C14.87773438 20.26993408 15.38046875 21.30158691 15.8984375 22.36450195 C17 25 17 25 17 28 C14.625 27.8125 14.625 27.8125 12 27 C11.34 25.35 10.68 23.7 10 22 C5.05 21.67 0.1 21.34 -5 21 C-4.67 19.02 -4.34 17.04 -4 15 C-3.67 15.99 -3.34 16.98 -3 18 C0.63 18 4.26 18 8 18 C7.71125 17.10796875 7.4225 16.2159375 7.125 15.296875 C6.75375 14.12640625 6.3825 12.9559375 6 11.75 C5.62875 10.58984375 5.2575 9.4296875 4.875 8.234375 C4 5 4 5 4 1 C2.68 1.33 1.36 1.66 0 2 C0 1.34 0 0.68 0 0 Z " fill="#696B6A" transform="translate(822,428)"/>
<path d="M0 0 C10.50256609 -0.3706788 10.50256609 -0.3706788 12.82421875 1.359375 C14 3 14 3 14.5 5.4375 C14 8 14 8 12.0625 10.3125 C7.79513443 12.66390552 4.83137516 12.28844031 0 12 C0 8.04 0 4.08 0 0 Z " fill="#F8F8F8" transform="translate(939,432)"/>
<path d="M0 0 C6.93 0 13.86 0 21 0 C18.85149352 6.44551945 16.08047558 12.24425184 13.0625 18.3125 C12.52431641 19.42173828 11.98613281 20.53097656 11.43164062 21.67382812 C10.90892578 22.72634766 10.38621094 23.77886719 9.84765625 24.86328125 C9.37336182 25.82532471 8.89906738 26.78736816 8.41040039 27.77856445 C7 30 7 30 4 31 C3.67 31.66 3.34 32.32 3 33 C3.61811534 28.44684052 5.46765893 24.71540233 7.5625 20.6875 C8.0565332 19.71973633 8.0565332 19.71973633 8.56054688 18.73242188 C9.36824255 17.15214772 10.18337613 15.57567895 11 14 C11.66 14 12.32 14 13 14 C13 12.68 13 11.36 13 10 C13.66 10 14.32 10 15 10 C15.33 7.69 15.66 5.38 16 3 C7.55375218 1.87397825 7.55375218 1.87397825 -0.04296875 4.55859375 C-1.57361224 6.67440053 -1.57361224 6.67440053 -3 10 C-3.33 9.34 -3.66 8.68 -4 8 C-2.68 5.36 -1.36 2.72 0 0 Z " fill="#15468A" transform="translate(314,366)"/>
<path d="M0 0 C5.41543537 1.08308707 5.81188089 1.38516751 8.8125 5.5625 C9.41707031 6.38878906 10.02164063 7.21507812 10.64453125 8.06640625 C11.09183594 8.70449219 11.53914062 9.34257812 12 10 C11.67 10.66 11.34 11.32 11 12 C9.68 10.68 8.36 9.36 7 8 C6.01 8.495 6.01 8.495 5 9 C4.67 15.27 4.34 21.54 4 28 C2.68 28 1.36 28 0 28 C0 18.76 0 9.52 0 0 Z " fill="#696A6A" transform="translate(702,428)"/>
<path d="M0 0 C0.99 0.33 1.98 0.66 3 1 C2.125 5.75 2.125 5.75 1 8 C7.435 7.505 7.435 7.505 14 7 C14.33 8.32 14.66 9.64 15 11 C9.72 11 4.44 11 -1 11 C-1.66 13.31 -2.32 15.62 -3 18 C-4.65 18 -6.3 18 -8 18 C-7.23517162 15.93526568 -6.46287235 13.8732979 -5.6875 11.8125 C-5.25824219 10.66394531 -4.82898438 9.51539063 -4.38671875 8.33203125 C-3.14209582 5.34143023 -1.74669146 2.71992131 0 0 Z " fill="#686968" transform="translate(606,438)"/>
<path d="M0 0 C0.99 0.66 1.98 1.32 3 2 C0.99467508 6.03578892 -1.01353258 10.07012762 -3.02416992 14.10327148 C-3.70460857 15.46910847 -4.38432275 16.83530667 -5.06323242 18.2019043 C-9.54752479 27.2269161 -14.16121979 36.15924949 -19 45 C-19.96862277 41.62065154 -19.92663319 40.02391967 -18.5625 36.75 C-18.27503906 36.04359375 -17.98757812 35.3371875 -17.69140625 34.609375 C-17.46324219 34.07828125 -17.23507813 33.5471875 -17 33 C-16.34 33 -15.68 33 -15 33 C-15 31.35 -15 29.7 -15 28 C-14.360625 27.773125 -13.72125 27.54625 -13.0625 27.3125 C-10.78388052 26.19250904 -10.78388052 26.19250904 -10.4375 23.8125 C-10.293125 22.884375 -10.14875 21.95625 -10 21 C-9.09098644 18.6187797 -8.04861938 16.3251995 -7 14 C-6.34 14 -5.68 14 -5 14 C-4.8453125 12.9790625 -4.8453125 12.9790625 -4.6875 11.9375 C-3.69784571 7.70897711 -1.93783143 3.87566286 0 0 Z " fill="#205295" transform="translate(236,454)"/>
<path d="M0 0 C7.26 0 14.52 0 22 0 C16.91071429 12.32142857 16.91071429 12.32142857 15 16 C14.34 15.67 13.68 15.34 13 15 C14.65 11.37 16.3 7.74 18 4 C12.88294793 2.72073698 8.21502035 1.82850992 3 3 C0.14610419 5.58455223 -1.38849971 8.53582251 -3 12 C-3.50660156 13.06734375 -3.50660156 13.06734375 -4.0234375 14.15625 C-4.73470282 15.74844025 -5.37632139 17.37150586 -6 19 C-6.66 18.01 -7.32 17.02 -8 16 C-5.36 10.72 -2.72 5.44 0 0 Z " fill="#3E83BC" transform="translate(217,412)"/>
<path d="M0 0 C0.33 0 0.66 0 1 0 C5.54065174 38.25740619 5.54065174 38.25740619 5 57 C4.67 57 4.34 57 4 57 C2.14436344 48.53253219 0.90054309 40.3083818 1.0625 31.625 C1.11273938 27.65050658 0.73482056 24.03034004 0 20.125 C-1.1759448 13.76155403 -1.43059381 7.4589072 -1 1 C-0.67 0.67 -0.34 0.34 0 0 Z " fill="#114081" transform="translate(415,270)"/>
<path d="M0 0 C1.32 0 2.64 0 4 0 C4 9.24 4 18.48 4 28 C2.68 28 1.36 28 0 28 C0 18.76 0 9.52 0 0 Z " fill="#666767" transform="translate(688,428)"/>
<path d="M0 0 C4.62 0 9.24 0 14 0 C14 0.33 14 0.66 14 1 C9.71 1 5.42 1 1 1 C1.33 5.62 1.66 10.24 2 15 C2.66 14.67 3.32 14.34 4 14 C4 14.66 4 15.32 4 16 C7.3 16 10.6 16 14 16 C13.34 17.32 12.68 18.64 12 20 C9.36 20 6.72 20 4 20 C4 22.64 4 25.28 4 28 C2.68 28 1.36 28 0 28 C0 18.76 0 9.52 0 0 Z " fill="#666766" transform="translate(846,428)"/>
<path d="M0 0 C0.66 0.33 1.32 0.66 2 1 C0.88839583 5.53905036 -0.51302191 9.00883808 -2.89892578 13.07983398 C-4.75563065 16.31774613 -6.40144652 19.6586901 -8.0625 23 C-8.40087891 23.67289062 -8.73925781 24.34578125 -9.08789062 25.0390625 C-10.70166413 28.27285236 -12.23195617 31.50572918 -13.609375 34.84765625 C-15.00857544 38.01943927 -16.39717606 39.75618626 -19 42 C-19.33 41.34 -19.66 40.68 -20 40 C-19.36097717 38.24093628 -19.36097717 38.24093628 -18.27758789 36.10107422 C-17.87709732 35.3003952 -17.47660675 34.49971619 -17.0639801 33.67477417 C-16.62134323 32.81014557 -16.17870636 31.94551697 -15.72265625 31.0546875 C-15.2773204 30.1696756 -14.83198456 29.2846637 -14.37315369 28.37283325 C-12.94370567 25.53639574 -11.50325293 22.70570931 -10.0625 19.875 C-9.09367316 17.95739882 -8.12556458 16.03943458 -7.15820312 14.12109375 C-4.78046554 9.40981203 -2.39366015 4.70321009 0 0 Z " fill="#2B75B3" transform="translate(351,352)"/>
<path d="M0 0 C0.33 0 0.66 0 1 0 C1 14.85 1 29.7 1 45 C0.67 45 0.34 45 0 45 C-0.33 32.79 -0.66 20.58 -1 8 C-6.0836458 17.45679248 -6.0836458 17.45679248 -11 27 C-11.66 27 -12.32 27 -13 27 C-11.32246669 21.21969949 -8.64724599 16.03416995 -5.9375 10.6875 C-5.47794922 9.76904297 -5.01839844 8.85058594 -4.54492188 7.90429688 C-1.14055525 1.14055525 -1.14055525 1.14055525 0 0 Z " fill="#0B1D3A" transform="translate(359,441)"/>
<path d="M0 0 C27.72 0 55.44 0 84 0 C84 0.33 84 0.66 84 1 C57.27 1.33 30.54 1.66 3 2 C3 2.99 3 3.98 3 5 C2.01 5.33 1.02 5.66 0 6 C0 4.02 0 2.04 0 0 Z " fill="#768599" transform="translate(378,408)"/>
<path d="M0 0 C4.29 0 8.58 0 13 0 C13 12.54 13 25.08 13 38 C10.80725914 33.61451828 10.76632488 31.44306472 10.8046875 26.609375 C10.8075174 25.90476135 10.81034729 25.20014771 10.81326294 24.47418213 C10.82442199 22.2326124 10.84951807 19.99144814 10.875 17.75 C10.88503536 16.22656829 10.89416024 14.70313029 10.90234375 13.1796875 C10.92434709 9.45299414 10.95884728 5.72653667 11 2 C7.37 2 3.74 2 0 2 C0 1.34 0 0.68 0 0 Z " fill="#284162" transform="translate(949,349)"/>
<path d="M0 0 C6.93 0 13.86 0 21 0 C15.00180158 12.86710305 8.70989469 25.49073913 2 38 C1 35 1 35 2.37109375 31.734375 C3.04948562 30.40090254 3.73905878 29.07308132 4.4375 27.75 C4.97697266 26.6988501 4.97697266 26.6988501 5.52734375 25.62646484 C7.4197212 21.95751949 9.36197371 18.31587972 11.31640625 14.6796875 C11.68258057 13.9980957 12.04875488 13.31650391 12.42602539 12.61425781 C13.13227632 11.30611219 13.84356921 10.00067391 14.56030273 8.69824219 C16.40536574 5.53381383 16.40536574 5.53381383 17 2 C14.54159395 1.97308315 12.08348118 1.95320198 9.625 1.9375 C8.57699219 1.92493164 8.57699219 1.92493164 7.5078125 1.91210938 C3.62704624 1.8164558 3.62704624 1.8164558 0 3 C0 2.01 0 1.02 0 0 Z " fill="#2B82CD" transform="translate(293,367)"/>
<path d="M0 0 C4.4856573 -0.11495135 8.96619019 -0.21441489 13.45214844 -0.2746582 C14.9770643 -0.29977103 16.50186015 -0.33386883 18.02636719 -0.37719727 C20.22100426 -0.43800044 22.4140481 -0.46623887 24.609375 -0.48828125 C25.92905273 -0.51446533 27.24873047 -0.54064941 28.60839844 -0.56762695 C32 0 32 0 34.46191406 2.53051758 C35.2232666 3.75291138 35.2232666 3.75291138 36 5 C35.01 5 34.02 5 33 5 C32.34 4.34 31.68 3.68 31 3 C28.10211679 2.70462109 28.10211679 2.70462109 24.71484375 2.76953125 C23.46251953 2.77146484 22.21019531 2.77339844 20.91992188 2.77539062 C19.60572266 2.78763672 18.29152344 2.79988281 16.9375 2.8125 C15.61943359 2.81314453 14.30136719 2.81378906 12.94335938 2.81445312 C7.09096076 2.26608877 7.09096076 2.26608877 2 4 C1.76712992 5.68183948 1.58735834 7.3712416 1.4375 9.0625 C1.35371094 9.98160156 1.26992188 10.90070313 1.18359375 11.84765625 C1.12300781 12.55792969 1.06242187 13.26820313 1 14 C0.67 14 0.34 14 0 14 C0 9.38 0 4.76 0 0 Z " fill="#224266" transform="translate(427,301)"/>
<path d="M0 0 C1.22869903 2.79249778 0.99374292 4.01838017 0 6.9375 C-2.71848384 12.75735274 -5.91061558 18.37139551 -9 24 C-9.66 24 -10.32 24 -11 24 C-11.2475 24.825 -11.495 25.65 -11.75 26.5 C-13.18704811 30.52373471 -15.02354515 34.21979024 -17 38 C-17.66 38 -18.32 38 -19 38 C-17.37542438 33.7151111 -15.39189841 29.63864085 -13.33984375 25.546875 C-12.81494102 24.49563446 -12.81494102 24.49563446 -12.2794342 23.42315674 C-11.54331097 21.95023256 -10.80618616 20.47780855 -10.06811523 19.00585938 C-8.93498332 16.7449786 -7.80616303 14.48198122 -6.67773438 12.21875 C-5.96119418 10.7863299 -5.24440606 9.3540338 -4.52734375 7.921875 C-4.01952614 6.90320343 -4.01952614 6.90320343 -3.50144958 5.86395264 C-1.11497417 1.11497417 -1.11497417 1.11497417 0 0 Z " fill="#276BAC" transform="translate(209,429)"/>
<path d="M0 0 C0.66 0.33 1.32 0.66 2 1 C2 1.99 2 2.98 2 4 C3.2415602 7.62917598 4.96233 10.75825228 7 14 C4.67578125 14.24609375 4.67578125 14.24609375 2 14 C0.48046875 12.28515625 0.48046875 12.28515625 -0.8125 10.0625 C-2.89953661 6.9153828 -2.89953661 6.9153828 -6.16015625 5.24609375 C-8.60405914 4.93328095 -8.60405914 4.93328095 -12 5 C-12 4.01 -12 3.02 -12 2 C-10.95199219 1.90912109 -10.95199219 1.90912109 -9.8828125 1.81640625 C-8.97273437 1.73261719 -8.06265625 1.64882813 -7.125 1.5625 C-6.22007812 1.48128906 -5.31515625 1.40007812 -4.3828125 1.31640625 C-1.98889139 1.13010715 -1.98889139 1.13010715 0 0 Z " fill="#686868" transform="translate(587,442)"/>
<path d="M0 0 C3.15702316 3.90869534 6 7.8614939 6 13 C2.37 13 -1.26 13 -5 13 C-2.05357143 3.89285714 -2.05357143 3.89285714 0 0 Z " fill="#F1F1F0" transform="translate(824,433)"/>
<path d="M0 0 C0.33 0.66 0.66 1.32 1 2 C0.34 2.66 -0.32 3.32 -1 4 C-3.6015625 3.9765625 -3.6015625 3.9765625 -6.625 3.625 C-7.62789062 3.51414062 -8.63078125 3.40328125 -9.6640625 3.2890625 C-10.43492187 3.19367188 -11.20578125 3.09828125 -12 3 C-11.96519531 3.68707031 -11.93039062 4.37414062 -11.89453125 5.08203125 C-11.86746094 5.98308594 -11.84039063 6.88414062 -11.8125 7.8125 C-11.76029297 9.15248047 -11.76029297 9.15248047 -11.70703125 10.51953125 C-12 13 -12 13 -15 16 C-15 10.72 -15 5.44 -15 0 C-12.89625 -0.185625 -10.7925 -0.37125 -8.625 -0.5625 C-7.44164062 -0.66691406 -6.25828125 -0.77132813 -5.0390625 -0.87890625 C-2 -1 -2 -1 0 0 Z " fill="#737473" transform="translate(862,429)"/>
<path d="M0 0 C2.66246807 1.33123403 2.94601652 2.6764378 4.125 5.375 C4.47820313 6.16648437 4.83140625 6.95796875 5.1953125 7.7734375 C6 10 6 10 6 13 C2.37 13 -1.26 13 -5 13 C-2.05357143 3.89285714 -2.05357143 3.89285714 0 0 Z " fill="#EEEEED" transform="translate(612,433)"/>
<path d="M0 0 C4.32129631 5.49983167 5.50822201 9.35738383 5.38671875 16.3671875 C5 19 5 19 2.75 22.0625 C-1.461359 25.02959384 -4.04072652 26.26208614 -9.25 26.125 C-10.14203125 26.10695313 -11.0340625 26.08890625 -11.953125 26.0703125 C-12.62859375 26.04710937 -13.3040625 26.02390625 -14 26 C-14 25.01 -14 24.02 -14 23 C-13.41992188 23.04640625 -12.83984375 23.0928125 -12.2421875 23.140625 C-6.5932739 23.40163091 -3.47757833 22.80594158 1 19 C2.73107488 15.53785023 2.48819473 11.78509418 2 8 C0.90291271 5.63814832 -0.3304373 4.03477954 -2 2 C-1.34 1.34 -0.68 0.68 0 0 Z " fill="#144688" transform="translate(402,299)"/>
<path d="M0 0 C3.21042015 3.21042015 3.38135154 3.462005 3.546875 7.6484375 C3.58756104 8.56608887 3.62824707 9.48374023 3.67016602 10.42919922 C3.69651123 11.40131348 3.72285645 12.37342773 3.75 13.375 C3.78601318 14.36129395 3.82202637 15.34758789 3.85913086 16.36376953 C4.07923383 23.64446547 3.88764939 30.76224341 3 38 C2.34 38 1.68 38 1 38 C0.67 25.46 0.34 12.92 0 0 Z " fill="#1D3F65" transform="translate(450,313)"/>
<path d="M0 0 C0.66 0.33 1.32 0.66 2 1 C-0.37680433 5.82762284 -2.76137816 10.65129505 -5.15332031 15.47143555 C-5.96635637 17.11261805 -6.77723774 18.75486979 -7.5859375 20.39819336 C-8.74698592 22.75657297 -9.91566354 25.11103124 -11.0859375 27.46484375 C-11.44746918 28.20339096 -11.80900085 28.94193817 -12.18148804 29.7028656 C-14.77225659 34.88612829 -14.77225659 34.88612829 -17 36 C-17.1875 33.6875 -17.1875 33.6875 -17 31 C-16.02246356 29.97803008 -15.0194119 28.98020375 -14 28 C-12.79950593 24.89992799 -12.79950593 24.89992799 -12 22 C-11.34 22 -10.68 22 -10 22 C-9.67 19.69 -9.34 17.38 -9 15 C-8.34 15 -7.68 15 -7 15 C-6.67 13.35 -6.34 11.7 -6 10 C-5.34 10 -4.68 10 -4 10 C-3.71125 9.0925 -3.4225 8.185 -3.125 7.25 C-2.23468224 4.67797092 -1.28505587 2.38653234 0 0 Z " fill="#265491" transform="translate(298,437)"/>
<path d="M0 0 C0.33 0 0.66 0 1 0 C1.50710303 4.80842339 -0.16069349 7.67694029 -2.5 11.8125 C-2.83386719 12.40998047 -3.16773438 13.00746094 -3.51171875 13.62304688 C-4.33172633 15.08734612 -5.16459312 16.54443137 -6 18 C-6.66 18 -7.32 18 -8 18 C-8.226875 18.78375 -8.45375 19.5675 -8.6875 20.375 C-10.40660933 25.12301625 -12.68084721 29.52102552 -15 34 C-15.66 33.67 -16.32 33.34 -17 33 C-14.74220516 28.45974947 -12.48182126 23.92080122 -10.21899414 19.38305664 C-9.44906891 17.83816761 -8.67986101 16.29292088 -7.91137695 14.74731445 C-6.80867473 12.52982365 -5.70342586 10.31361874 -4.59765625 8.09765625 C-4.25283707 7.4028566 -3.90801788 6.70805695 -3.55274963 5.99220276 C-1.11387171 1.11387171 -1.11387171 1.11387171 0 0 Z " fill="#2669A8" transform="translate(272,407)"/>
<path d="M0 0 C0.66 0.33 1.32 0.66 2 1 C-2.95 10.9 -7.9 20.8 -13 31 C-13.66 30.67 -14.32 30.34 -15 30 C-14.125 25.25 -14.125 25.25 -13 23 C-12.34 23 -11.68 23 -11 23 C-10.7834375 22.1028125 -10.7834375 22.1028125 -10.5625 21.1875 C-10.1127561 19.43849596 -9.57107659 17.71322977 -9 16 C-8.34 16 -7.68 16 -7 16 C-7 14.02 -7 12.04 -7 10 C-6.01 10 -5.02 10 -4 10 C-3.34 7.36 -2.68 4.72 -2 2 C-1.34 2 -0.68 2 0 2 C0 1.34 0 0.68 0 0 Z " fill="#1E508F" transform="translate(368,402)"/>
<path d="M0 0 C0.845625 0.495 1.69125 0.99 2.5625 1.5 C2.5625 2.82 2.5625 4.14 2.5625 5.5 C1.716875 5.17 0.87125 4.84 0 4.5 C-3.41094915 3.33414809 -3.41094915 3.33414809 -7 3.5 C-10.40895757 3.5 -12.40568304 2.96997186 -15.4375 1.5 C-11.08243888 -2.85506112 -5.33450168 -2.32778255 0 0 Z " fill="#757777" transform="translate(756.4375,428.5)"/>
<path d="M0 0 C0.99 0.33 1.98 0.66 3 1 C2.505 1.639375 2.01 2.27875 1.5 2.9375 C-0.49943736 7.01968462 -0.78392505 10.52509452 0 15 C1.28062485 16.7074998 2.6072711 18.38263741 4 20 C3.84077523 23.42333251 3.4368763 24.5631237 1 27 C0 25 0 25 0 21 C-0.495 20.319375 -0.99 19.63875 -1.5 18.9375 C-3.80509821 14.42334935 -3.58169583 9.97424509 -3 5 C-1.5 1.8125 -1.5 1.8125 0 0 Z " fill="#3F89C2" transform="translate(384,301)"/>
<path d="M0 0 C2.0625 0.4375 2.0625 0.4375 4 1 C3.04632051 3.38419873 2.42010128 4.73467287 0.21875 6.125 C-2.27893252 7.11000156 -4.0776682 7.20359799 -6.75 7.125 C-7.54921875 7.10695313 -8.3484375 7.08890625 -9.171875 7.0703125 C-9.77515625 7.04710937 -10.3784375 7.02390625 -11 7 C-10.67 5.68 -10.34 4.36 -10 3 C-9.04287109 2.80083984 -9.04287109 2.80083984 -8.06640625 2.59765625 C-7.24011719 2.42105469 -6.41382813 2.24445313 -5.5625 2.0625 C-4.73878906 1.88847656 -3.91507813 1.71445312 -3.06640625 1.53515625 C-1.02338796 1.19247006 -1.02338796 1.19247006 0 0 Z " fill="#717171" transform="translate(559,450)"/>
<path d="M0 0 C6.6 0 13.2 0 20 0 C16.625 10.125 16.625 10.125 14 15 C13.34 14.67 12.68 14.34 12 14 C13.65 10.37 15.3 6.74 17 3 C13.55277634 2.13819408 10.94370835 1.83635176 7.4375 1.8125 C6.01244141 1.79123047 6.01244141 1.79123047 4.55859375 1.76953125 C1.75774757 1.81641112 1.75774757 1.81641112 -1 4 C-0.67 2.68 -0.34 1.36 0 0 Z " fill="#2C83CD" transform="translate(218,413)"/>
<path d="M0 0 C2.55687669 0.34552388 4.57501375 0.75087013 6.8125 2.0625 C8.7357674 5.2004626 8.67222998 8.48317579 8 12 C6 14.5 6 14.5 4 16 C4.66 14.35 5.32 12.7 6 11 C5.34 11 4.68 11 4 11 C3.79503906 10.37351562 3.59007812 9.74703125 3.37890625 9.1015625 C3.10949219 8.28429687 2.84007812 7.46703125 2.5625 6.625 C2.16224609 5.40683594 2.16224609 5.40683594 1.75390625 4.1640625 C1.04820271 1.98968201 1.04820271 1.98968201 0 0 Z " fill="#6D6E6E" transform="translate(949,429)"/>
<path d="M0 0 C7.26 0 14.52 0 22 0 C22 0.33 22 0.66 22 1 C15.07 1 8.14 1 1 1 C1 2.65 1 4.3 1 6 C-0.3125 8.45703125 -0.3125 8.45703125 -2 10.8125 C-2.556875 11.60269531 -3.11375 12.39289063 -3.6875 13.20703125 C-4.120625 13.79871094 -4.55375 14.39039063 -5 15 C-5.66 14.67 -6.32 14.34 -7 14 C-4.69 9.38 -2.38 4.76 0 0 Z " fill="#428BBE" transform="translate(292,366)"/>
<path d="M0 0 C6.07328688 -0.50610724 9.77228537 0.95842058 15 4 C14.67 4.99 14.34 5.98 14 7 C9.71 6.34 5.42 5.68 1 5 C2.32 4.34 3.64 3.68 5 3 C3.35 2.67 1.7 2.34 0 2 C0 1.34 0 0.68 0 0 Z " fill="#7B7C7C" transform="translate(1079,427)"/>
<path d="M0 0 C0.33 0.99 0.66 1.98 1 3 C7.435 2.505 7.435 2.505 14 2 C14.33 3.32 14.66 4.64 15 6 C9.72 6 4.44 6 -1 6 C-0.67 4.02 -0.34 2.04 0 0 Z " fill="#606160" transform="translate(818,443)"/>
<path d="M0 0 C0.66 1.32 1.32 2.64 2 4 C-3.28 4 -8.56 4 -14 4 C-13.34 3.01 -12.68 2.02 -12 1 C-9.1796875 0.48828125 -9.1796875 0.48828125 -5.875 0.3125 C-4.23144531 0.21388672 -4.23144531 0.21388672 -2.5546875 0.11328125 C-1.29011719 0.05720703 -1.29011719 0.05720703 0 0 Z " fill="#616161" transform="translate(619,445)"/>
<path d="M0 0 C0.66 0.33 1.32 0.66 2 1 C-1.63 8.26 -5.26 15.52 -9 23 C-10.25541557 19.23375329 -9.37061958 17.62811066 -8 14 C-7.34 14 -6.68 14 -6 14 C-5.8453125 12.3603125 -5.8453125 12.3603125 -5.6875 10.6875 C-4.988068 6.93600108 -4.74005005 6.30164205 -2 4 C-0.82425289 1.90010348 -0.82425289 1.90010348 0 0 Z " fill="#1A4F90" transform="translate(330,477)"/>
<path d="M0 0 C-0.97296654 2.65354511 -1.65792423 3.79877896 -4.125 5.25 C-7.87688545 6.22875273 -11.1264351 6.13130728 -15 6 C-15 5.34 -15 4.68 -15 4 C-12.36 3.67 -9.72 3.34 -7 3 C-7 2.34 -7 1.68 -7 1 C-3.375 -1.125 -3.375 -1.125 0 0 Z " fill="#717170" transform="translate(806,451)"/>
<path d="M0 0 C2.475 0.99 2.475 0.99 5 2 C5 2.66 5 3.32 5 4 C8.3 4.33 11.6 4.66 15 5 C13 7 13 7 9.25 7.3125 C5.24010342 7.23200938 2.45850923 6.07510554 -1 4 C-0.67 2.68 -0.34 1.36 0 0 Z " fill="#747475" transform="translate(1129,450)"/>
<path d="M0 0 C0.66 0.99 1.32 1.98 2 3 C-1.75 6.875 -1.75 6.875 -4 8 C-4.40729228 10.32156597 -4.74438677 12.6568787 -5 15 C-5.66 14.67 -6.32 14.34 -7 14 C-7.36585366 7.65853659 -7.36585366 7.65853659 -5.75 4.75 C-3.94805346 2.94805346 -2.096629 1.44595103 0 0 Z " fill="#757676" transform="translate(1044,431)"/>
<path d="M0 0 C0.66 0.33 1.32 0.66 2 1 C2 1.99 2 2.98 2 4 C1.01 4 0.02 4 -1 4 C-1.33 4.99 -1.66 5.98 -2 7 C-5.3 6.34 -8.6 5.68 -12 5 C-12 4.01 -12 3.02 -12 2 C-10.95199219 1.90912109 -10.95199219 1.90912109 -9.8828125 1.81640625 C-8.97273437 1.73261719 -8.06265625 1.64882813 -7.125 1.5625 C-6.22007812 1.48128906 -5.31515625 1.40007812 -4.3828125 1.31640625 C-1.98889139 1.13010715 -1.98889139 1.13010715 0 0 Z " fill="#626262" transform="translate(587,442)"/>
<path d="M0 0 C0.33 0 0.66 0 1 0 C1.97159933 7.68604474 2.10920422 15.25863399 2 23 C1.34 23 0.68 23 0 23 C-1.47526882 7.66774194 -1.47526882 7.66774194 -1 1 C-0.67 0.67 -0.34 0.34 0 0 Z " fill="#093A7D" transform="translate(415,270)"/>
<path d="M0 0 C0.66 0.33 1.32 0.66 2 1 C0.69947987 6.31045719 -1.15976663 10.327358 -4 15 C-4.33 15.66 -4.66 16.32 -5 17 C-5.99 16.67 -6.98 16.34 -8 16 C-5.36 10.72 -2.72 5.44 0 0 Z " fill="#327BB7" transform="translate(351,352)"/>
<path d="M0 0 C0.33 0 0.66 0 1 0 C1 6.93 1 13.86 1 21 C-1.79769299 18.20230701 -1.52927218 15.38449317 -1.75 11.625 C-1.80542969 10.95210938 -1.86085938 10.27921875 -1.91796875 9.5859375 C-2.16219183 5.82638219 -2.12112074 3.1816811 0 0 Z " fill="#1D5397" transform="translate(420,321)"/>
<path d="M0 0 C0 1.32 0 2.64 0 4 C-0.99 4 -1.98 4 -3 4 C-3.33 3.67 -3.66 3.34 -4 3 C-5.34747084 2.76924918 -6.70377565 2.58846937 -8.0625 2.4375 C-9.361875 2.293125 -10.66125 2.14875 -12 2 C-10 -1 -10 -1 -7.6875 -1.8125 C-4.5778434 -2.02945279 -2.7770808 -1.34886782 0 0 Z " fill="#757676" transform="translate(805,430)"/>
<path d="M0 0 C2.02045442 0.60183749 4.02111039 1.27306096 6 2 C6.33 2.66 6.66 3.32 7 4 C6.01 5.485 6.01 5.485 5 7 C4.34 7 3.68 7 3 7 C3 6.34 3 5.68 3 5 C-1.29 4.67 -5.58 4.34 -10 4 C-10 3.67 -10 3.34 -10 3 C-6.7 3 -3.4 3 0 3 C0 2.01 0 1.02 0 0 Z " fill="#808080" transform="translate(585,428)"/>
<path d="M0 0 C6.6 0 13.2 0 20 0 C19.34 1.32 18.68 2.64 18 4 C17.43152344 3.67515625 16.86304688 3.3503125 16.27734375 3.015625 C11.69380903 0.97151003 6.61975693 1.47109978 1.9375 3 C0.9784375 3.495 0.9784375 3.495 0 4 C0 2.68 0 1.36 0 0 Z " fill="#084090" transform="translate(238,413)"/>
<path d="M0 0 C0.66 0 1.32 0 2 0 C2 0.66 2 1.32 2 2 C2.70511719 2.11214844 3.41023438 2.22429687 4.13671875 2.33984375 C7.27389512 3.06314908 9.90127906 4.19457691 12.8125 5.5625 C14.27623047 6.24505859 14.27623047 6.24505859 15.76953125 6.94140625 C16.50558594 7.29074219 17.24164063 7.64007813 18 8 C18 8.66 18 9.32 18 10 C13.49272353 9.39733215 10.1412037 7.63400206 6.1875 5.4375 C5.59001953 5.10814453 4.99253906 4.77878906 4.37695312 4.43945312 C2.91466002 3.63226733 1.4568601 2.81695083 0 2 C0 1.34 0 0.68 0 0 Z " fill="#317AB7" transform="translate(344,321)"/>
<path d="M0 0 C1 4 1 4 0.00390625 6.25390625 C-0.47175781 7.01574219 -0.94742187 7.77757812 -1.4375 8.5625 C-3.61271425 11.99703282 -3.61271425 11.99703282 -4 16 C-5.32 15.67 -6.64 15.34 -8 15 C-5.36 10.05 -2.72 5.1 0 0 Z " fill="#11448C" transform="translate(286,483)"/>
<path d="M0 0 C0.33 0 0.66 0 1 0 C1.36020428 4.99783437 0.34389935 7.98018872 -2 12.375 C-2.556875 13.43460937 -3.11375 14.49421875 -3.6875 15.5859375 C-4.120625 16.38257813 -4.55375 17.17921875 -5 18 C-6.12377697 14.69564916 -5.89554742 12.9493138 -4.5625 9.75 C-4.27503906 9.04359375 -3.98757812 8.3371875 -3.69140625 7.609375 C-3.46324219 7.07828125 -3.23507813 6.5471875 -3 6 C-2.34 6 -1.68 6 -1 6 C-1.020625 5.195625 -1.04125 4.39125 -1.0625 3.5625 C-1 1 -1 1 0 0 Z " fill="#104A96" transform="translate(222,481)"/>
<path d="M0 0 C0.66 0.33 1.32 0.66 2 1 C1.34 1.61875 0.68 2.2375 0 2.875 C-2.79514062 7.24240721 -2.35288244 10.95182061 -2 16 C-2.66 16.33 -3.32 16.66 -4 17 C-5.73994279 13.52011442 -5.5976415 9.7956593 -5 6 C-3.57493025 3.54349865 -2.05967593 2.00818403 0 0 Z " fill="#E2F8FD" transform="translate(388,301)"/>
<path d="M0 0 C1.16161779 2.86578759 0.9946154 4.01630163 0.00390625 7.015625 C-0.70958984 8.61664063 -0.70958984 8.61664063 -1.4375 10.25 C-1.91058594 11.32765625 -2.38367188 12.4053125 -2.87109375 13.515625 C-3.24363281 14.33546875 -3.61617187 15.1553125 -4 16 C-4.99 16 -5.98 16 -7 16 C-5.35433477 10.31497465 -2.70967216 5.23318364 0 0 Z " fill="#215195" transform="translate(181,483)"/>
<path d="M0 0 C0.33 0 0.66 0 1 0 C1.33 2.31 1.66 4.62 2 7 C2.66 5.68 3.32 4.36 4 3 C4 5.64 4 8.28 4 11 C2.68 11.33 1.36 11.66 0 12 C-1.17661508 8.32307787 -1.14475933 4.8361222 -1 1 C-0.67 0.67 -0.34 0.34 0 0 Z " fill="#747474" transform="translate(1069,437)"/>
<path d="M0 0 C7.93333333 -0.62222222 7.93333333 -0.62222222 12 1.75 C14.03243354 4.03648773 14.42078099 5.10390493 15 8 C15.99 8.66 16.98 9.32 18 10 C15.8125 9.9375 15.8125 9.9375 13 9 C11.8359375 7.41015625 11.8359375 7.41015625 10.6875 5.5 C9.21161176 3.18682901 8.54533794 2.17804877 5.90625 1.31640625 C3.44896577 0.99892282 3.44896577 0.99892282 0 1 C0 0.67 0 0.34 0 0 Z " fill="#636363" transform="translate(850,446)"/>
<path d="M0 0 C2.475 0.99 2.475 0.99 5 2 C5 3.32 5 4.64 5 6 C0.71 5.34 -3.58 4.68 -8 4 C-8 3.67 -8 3.34 -8 3 C-6.865625 2.87625 -5.73125 2.7525 -4.5625 2.625 C-3.386875 2.41875 -2.21125 2.2125 -1 2 C-0.67 1.34 -0.34 0.68 0 0 Z " fill="#7C7C7D" transform="translate(1057,428)"/>
<path d="M0 0 C4.875 4.625 4.875 4.625 6 8 C3.6875 8.3125 3.6875 8.3125 1 8 C-0.875 5.625 -0.875 5.625 -2 3 C-1 1 -1 1 0 0 Z " fill="#686968" transform="translate(951,448)"/>
<path d="M0 0 C2.625 0.9375 2.625 0.9375 5 2 C5 3.32 5 4.64 5 6 C1.37 5.01 -2.26 4.02 -6 3 C-4 2 -2 1 0 0 Z " fill="#686A69" transform="translate(754,428)"/>
<path d="M0 0 C1.48828125 1.01953125 1.48828125 1.01953125 3 3 C3.2172101 5.64996326 3.28351554 8.05076558 3.1875 10.6875 C3.17396484 11.38939453 3.16042969 12.09128906 3.14648438 12.81445312 C3.11120182 14.54329829 3.05739583 16.27174765 3 18 C2.67 18 2.34 18 2 18 C0.59545452 11.88019467 -0.23268915 6.28260706 0 0 Z " fill="#15478A" transform="translate(417,309)"/>
<path d="M0 0 C2.5330499 0.52383185 5.018854 1.11732422 7.5078125 1.8203125 C7.5078125 2.1503125 7.5078125 2.4803125 7.5078125 2.8203125 C4.2078125 3.4803125 0.9078125 4.1403125 -2.4921875 4.8203125 C-2.4921875 4.1603125 -2.4921875 3.5003125 -2.4921875 2.8203125 C-3.8121875 3.1503125 -5.1321875 3.4803125 -6.4921875 3.8203125 C-4.6389259 0.95618093 -3.49631518 -0.25208542 0 0 Z " fill="#686968" transform="translate(1079.4921875,428.1796875)"/>
<path d="M0 0 C2.33936818 2.12669835 3.80653848 4.06224856 5 7 C5 7.99 5 8.98 5 10 C3.68 10 2.36 10 1 10 C0.22157062 6.59437148 -0.09978121 3.49234244 0 0 Z " fill="#666666" transform="translate(622,446)"/>
<path d="M0 0 C0 3.3 0 6.6 0 10 C-1.32 9.67 -2.64 9.34 -4 9 C-4 6.36 -4 3.72 -4 1 C-1 0 -1 0 0 0 Z " fill="#646464" transform="translate(542,437)"/>
<path d="M0 0 C0.99 0 1.98 0 3 0 C3 0.66 3 1.32 3 2 C2.34 2 1.68 2 1 2 C0.92572162 5.34252724 0.93453047 7.8035914 2 11 C1.01 11.33 0.02 11.66 -1 12 C-1.2226746 10.56465159 -1.42761906 9.12654475 -1.625 7.6875 C-1.74101563 6.88699219 -1.85703125 6.08648437 -1.9765625 5.26171875 C-2 3 -2 3 0 0 Z " fill="#717372" transform="translate(737,433)"/>
<path d="M0 0 C1.65 0 3.3 0 5 0 C7.05257931 3.44833324 8.0632763 5.31661591 7.6875 9.375 C7.460625 10.24125 7.23375 11.1075 7 12 C4.87953208 8.46588679 4.46800711 5.05606165 4 1 C2.68 1.33 1.36 1.66 0 2 C0 1.34 0 0.68 0 0 Z " fill="#5F6060" transform="translate(822,428)"/>
<path d="M0 0 C-1.485 1.485 -1.485 1.485 -3 3 C-1.68 3.33 -0.36 3.66 1 4 C1 4.99 1 5.98 1 7 C-1.64 5.68 -4.28 4.36 -7 3 C-7 2.34 -7 1.68 -7 1 C-3.375 -1.125 -3.375 -1.125 0 0 Z " fill="#3F80B3" transform="translate(342,316)"/>
<path d="M0 0 C-1.26700723 0.9841125 -2.5387619 1.96211497 -3.8125 2.9375 C-4.87404297 3.75541016 -4.87404297 3.75541016 -5.95703125 4.58984375 C-8 6 -8 6 -11 7 C-11 4.6875 -11 4.6875 -10 2 C-6.83937014 0.1591936 -3.42498976 -1.71249488 0 0 Z " fill="#2E84CA" transform="translate(350,312)"/>
<path d="M0 0 C1 2 1 2 0.51171875 4.12890625 C0.23972656 4.93199219 -0.03226563 5.73507812 -0.3125 6.5625 C-0.57675781 7.36816406 -0.84101563 8.17382812 -1.11328125 9.00390625 C-2 11 -2 11 -4 12 C-5 9 -5 9 -4.00390625 6.73828125 C-3.52824219 5.93777344 -3.05257812 5.13726562 -2.5625 4.3125 C-2.08941406 3.50425781 -1.61632812 2.69601562 -1.12890625 1.86328125 C-0.75636719 1.24839844 -0.38382813 0.63351562 0 0 Z " fill="#246AAD" transform="translate(203,441)"/>
<path d="M0 0 C2.86724686 0.57344937 3.8614515 0.8614515 6 3 C6.125 5.625 6.125 5.625 6 8 C5.67 7.01 5.34 6.02 5 5 C4.34 5 3.68 5 3 5 C2.67 6.32 2.34 7.64 2 9 C1.34 7.02 0.68 5.04 0 3 C0.66 3 1.32 3 2 3 C2 2.34 2 1.68 2 1 C1.34 0.67 0.68 0.34 0 0 Z " fill="#686968" transform="translate(992,442)"/>
<path d="M0 0 C0.99 0.33 1.98 0.66 3 1 C1.71937515 2.7074998 0.38232443 4.37373596 -1 6 C-1.66 6 -2.32 6 -3 6 C-3 7.32 -3 8.64 -3 10 C-3.66 10 -4.32 10 -5 10 C-4.49701212 5.59885603 -2.91227269 3.28804981 0 0 Z " fill="#15273F" transform="translate(646,353)"/>
<path d="M0 0 C0.99 0.33 1.98 0.66 3 1 C1.02 4.96 -0.96 8.92 -3 13 C-4.23593891 9.29218328 -3.5678132 8.32489747 -2.0625 4.8125 C-1.68222656 3.91144531 -1.30195313 3.01039063 -0.91015625 2.08203125 C-0.60980469 1.39496094 -0.30945313 0.70789063 0 0 Z " fill="#255695" transform="translate(272,487)"/>
<path d="M0 0 C1.32 0.33 2.64 0.66 4 1 C3.6875 4.375 3.6875 4.375 3 8 C2.01 8.66 1.02 9.32 0 10 C0.66 8.35 1.32 6.7 2 5 C1.34 5 0.68 5 0 5 C0 3.35 0 1.7 0 0 Z " fill="#656565" transform="translate(953,435)"/>
<path d="M0 0 C0.66 0 1.32 0 2 0 C2.33 0.99 2.66 1.98 3 3 C2.505 3.391875 2.01 3.78375 1.5 4.1875 C-0.45593143 6.55091715 -0.24207973 8.01435003 0 11 C-0.99 10.34 -1.98 9.68 -3 9 C-2.01 6.03 -1.02 3.06 0 0 Z " fill="#1B2B42" transform="translate(643,388)"/>
<path d="M0 0 C1 2 1 2 0.25 5.5625 C-0.1625 6.696875 -0.575 7.83125 -1 9 C-1.99 9.33 -2.98 9.66 -4 10 C-4.33 10.66 -4.66 11.32 -5 12 C-4.42365861 7.24518354 -2.44931479 4.02951788 0 0 Z " fill="#0F448D" transform="translate(322,387)"/>
<path d="M0 0 C1.65 1.32 3.3 2.64 5 4 C4.25 8.75 4.25 8.75 2 11 C1 9 1 9 1 5 C0.69595322 3.32774271 0.36871088 1.65919896 0 0 Z " fill="#3482C5" transform="translate(383,317)"/>
<path d="M0 0 C0.99 1.32 1.98 2.64 3 4 C2.67 4.66 2.34 5.32 2 6 C1.31744011 8.32873375 0.64949225 10.66182791 0 13 C-0.66 12.67 -1.32 12.34 -2 12 C-1.34 8.04 -0.68 4.08 0 0 Z " fill="#747575" transform="translate(817,438)"/>
<path d="M0 0 C0.66 0.33 1.32 0.66 2 1 C0.02 4.96 -1.96 8.92 -4 13 C-4.33 13 -4.66 13 -5 13 C-5.83861979 7.63283335 -2.92070405 4.20372761 0 0 Z " fill="#D5EFF9" transform="translate(266,415)"/>
<path d="M0 0 C3.63 0.33 7.26 0.66 11 1 C10.67 1.66 10.34 2.32 10 3 C6.7 3 3.4 3 0 3 C0 2.01 0 1.02 0 0 Z " fill="#0E4285" transform="translate(388,322)"/>
<path d="M0 0 C-0.33 1.32 -0.66 2.64 -1 4 C-2.65 4.33 -4.3 4.66 -6 5 C-6 4.01 -6 3.02 -6 2 C-2.25 0 -2.25 0 0 0 Z " fill="#717273" transform="translate(1077,431)"/>
<path d="M0 0 C0.66 0.99 1.32 1.98 2 3 C-3.75 7 -3.75 7 -6 7 C-4.60667426 3.63279613 -3.0210714 2.0140476 0 0 Z " fill="#6E706F" transform="translate(787,431)"/>
<path d="M0 0 C0 1.32 0 2.64 0 4 C-3.68754757 3.50168276 -5.60490662 2.89932357 -8 0 C-4.94736336 -0.98120464 -3.05263664 -0.98120464 0 0 Z " fill="#707171" transform="translate(1148,429)"/>
<path d="M0 0 C2.6875 0.875 2.6875 0.875 5 2 C4.67 2.99 4.34 3.98 4 5 C-0.75 4.25 -0.75 4.25 -3 2 C-2.01 1.34 -1.02 0.68 0 0 Z " fill="#707271" transform="translate(558,429)"/>
<path d="M0 0 C1.485 0.99 1.485 0.99 3 2 C3.1875 5.125 3.1875 5.125 3 8 C2.01 8.495 2.01 8.495 1 9 C0.34 8.34 -0.32 7.68 -1 7 C-0.625 3.375 -0.625 3.375 0 0 Z " fill="#6F6F6F" transform="translate(589,436)"/>
<path d="M0 0 C0.33 0 0.66 0 1 0 C1.27827115 1.55771352 1.52141944 3.12172314 1.75 4.6875 C1.88921875 5.55761719 2.0284375 6.42773438 2.171875 7.32421875 C2 10 2 10 -2 15 C-1.34 10.05 -0.68 5.1 0 0 Z " fill="#2C4564" transform="translate(1117,372)"/>
<path d="M0 0 C1 3 1 3 0.22265625 5.04296875 C-0.16019531 5.75066406 -0.54304688 6.45835937 -0.9375 7.1875 C-1.31777344 7.90292969 -1.69804687 8.61835938 -2.08984375 9.35546875 C-2.54037109 10.16951172 -2.54037109 10.16951172 -3 11 C-3.33 11 -3.66 11 -4 11 C-4 9.02 -4 7.04 -4 5 C-3.01 4.67 -2.02 4.34 -1 4 C-0.26676204 1.98491642 -0.26676204 1.98491642 0 0 Z " fill="#235494" transform="translate(279,475)"/>
<path d="M0 0 C-0.33 0.99 -0.66 1.98 -1 3 C-3.375 2.6875 -3.375 2.6875 -6 2 C-6.66 1.01 -7.32 0.02 -8 -1 C-4.59745511 -2.2151946 -3.06748874 -1.86240388 0 0 Z " fill="#6E6F6F" transform="translate(997,430)"/>
<path d="M0 0 C2.97 0 5.94 0 9 0 C8.67 0.99 8.34 1.98 8 3 C5.36 3 2.72 3 0 3 C0 2.01 0 1.02 0 0 Z " fill="#626161" transform="translate(984,428)"/>
<path d="M0 0 C1.32 0.66 2.64 1.32 4 2 C4 3.32 4 4.64 4 6 C1.525 5.01 1.525 5.01 -1 4 C-0.67 2.68 -0.34 1.36 0 0 Z " fill="#6B6C6C" transform="translate(1157,450)"/>
<path d="M0 0 C3 3.75 3 3.75 3 6 C0.0625 5.1875 0.0625 5.1875 -3 4 C-3.33 3.01 -3.66 2.02 -4 1 C-2.68 0.67 -1.36 0.34 0 0 Z " fill="#737473" transform="translate(1010,448)"/>
<path d="M0 0 C2.4375 0.375 2.4375 0.375 5 1 C5.33 1.66 5.66 2.32 6 3 C5.01 3.99 4.02 4.98 3 6 C2 4 1 2 0 0 Z " fill="#6A6B6A" transform="translate(861,429)"/>
<path d="M0 0 C1.32 0.66 2.64 1.32 4 2 C3.34 3.32 2.68 4.64 2 6 C-0.475 5.01 -0.475 5.01 -3 4 C-2.01 3.67 -1.02 3.34 0 3 C0 2.01 0 1.02 0 0 Z " fill="#747476" transform="translate(1143,441)"/>
<path d="M0 0 C0.99 0.33 1.98 0.66 3 1 C2.34 1.66 1.68 2.32 1 3 C0.53837573 5.43252661 0.53837573 5.43252661 0.375 8.125 C0.30023438 9.03507812 0.22546875 9.94515625 0.1484375 10.8828125 C0.09945313 11.58148438 0.05046875 12.28015625 0 13 C-0.33 13 -0.66 13 -1 13 C-1.02686553 11.02090602 -1.04633375 9.04171029 -1.0625 7.0625 C-1.07410156 5.96035156 -1.08570313 4.85820312 -1.09765625 3.72265625 C-1 1 -1 1 0 0 Z " fill="#496585" transform="translate(428,302)"/>
<path d="M0 0 C1 2 1 2 0.1875 5.5625 C-1 9 -1 9 -3 10 C-3 8.35 -3 6.7 -3 5 C-2.34 5 -1.68 5 -1 5 C-0.67 3.35 -0.34 1.7 0 0 Z " fill="#144A90" transform="translate(292,447)"/>
<path d="M0 0 C0.66 0.33 1.32 0.66 2 1 C1.34 3.31 0.68 5.62 0 8 C-0.66 7.67 -1.32 7.34 -2 7 C-1.125 2.25 -1.125 2.25 0 0 Z " fill="#174F98" transform="translate(355,425)"/>
<path d="M0 0 C0.66 0.33 1.32 0.66 2 1 C0.68 3.64 -0.64 6.28 -2 9 C-3.10102197 5.69693408 -2.95067299 4.28414305 -2 1 C-1.34 0.67 -0.68 0.34 0 0 Z " fill="#224E8A" transform="translate(305,423)"/>
</svg>
